<?xml version="1.0" standalone="no"?>
<!DOCTYPE svg PUBLIC "-//W3C//DTD SVG 1.1//EN" "http://www.w3.org/Graphics/SVG/1.1/DTD/svg11.dtd" >
<svg xmlns="http://www.w3.org/2000/svg">
<metadata>Generated by IcoMoon</metadata>
<defs>
<font id="icomoon" horiz-adv-x="1024">
<font-face units-per-em="1024" ascent="960" descent="-64" />
<missing-glyph horiz-adv-x="1024" />
<glyph unicode="&#x20;" horiz-adv-x="512" d="" />
<glyph unicode="&#xe900;" glyph-name="info" d="M511.998 945.773c-98.451 0-194.692-29.194-276.551-83.891s-145.66-132.439-183.336-223.396c-37.676-90.956-47.533-191.043-28.326-287.603s66.616-185.254 136.231-254.87c69.615-69.615 158.31-117.025 254.87-136.231s196.647-9.349 287.603 28.326c90.958 37.675 168.699 101.477 223.396 183.336s83.89 178.1 83.89 276.551c-0.155 131.97-52.651 258.492-145.968 351.809s-219.839 145.813-351.809 145.968zM511.998 40.723c-80.552 0-159.294 23.886-226.27 68.637s-119.177 108.359-150.002 182.778c-30.826 74.42-38.891 156.309-23.176 235.312s54.504 151.572 111.462 208.53c56.958 56.959 129.527 95.747 208.53 111.462s160.892 7.649 235.312-23.176c74.42-30.826 138.026-83.026 182.778-150.002s68.639-145.718 68.639-226.268c-0.132-107.976-43.084-211.49-119.434-287.84s-179.864-119.302-287.839-119.433zM511.995 583.758c-12.003 0-23.512-4.768-31.998-13.255s-13.255-19.996-13.255-31.998v-316.767c0-12.003 4.768-23.513 13.255-31.998 8.487-8.487 19.996-13.255 31.998-13.255 12.001 0 23.512 4.768 31.998 13.255 8.485 8.485 13.253 19.996 13.253 31.998v316.767c0 12.003-4.768 23.512-13.253 31.998-8.487 8.487-19.997 13.255-31.998 13.255zM511.995 629.011c24.992 0 45.251 20.26 45.251 45.251 0 24.993-20.26 45.253-45.251 45.253-24.993 0-45.253-20.26-45.253-45.253 0-24.992 20.26-45.251 45.253-45.251z" />
<glyph unicode="&#xe901;" glyph-name="massage-send" horiz-adv-x="768" d="M263.853 37.082c-9.479 0-18.959 3.627-26.18 10.846l-226.811 226.82c-14.483 14.477-14.483 37.884 0 52.361 14.477 14.477 37.876 14.477 52.36 0l200.631-200.631 427.453 427.447c14.477 14.476 37.879 14.476 52.361 0 14.477-14.483 14.477-37.883 0-52.364l-453.627-453.632c-7.221-7.219-16.707-10.846-26.187-10.846zM263.853 306.547c-9.479 0-18.959 3.631-26.18 10.85l-226.811 226.818c-14.483 14.476-14.483 37.883 0 52.36 14.477 14.476 37.876 14.476 52.36 0l200.631-200.633 427.453 427.45c14.477 14.477 37.879 14.477 52.361 0 14.477-14.483 14.477-37.883 0-52.367l-453.627-453.629c-7.221-7.219-16.707-10.85-26.187-10.85z" />
<glyph unicode="&#xe902;" glyph-name="logout" d="M669.538 329.846c-10.445 0-20.464-4.151-27.849-11.536-7.389-7.385-11.536-17.404-11.536-27.849v-236.308c-0.012-10.441-4.163-20.456-11.548-27.837-7.385-7.385-17.396-11.54-27.837-11.548h-472.615c-10.446 0-20.463 4.151-27.849 11.536s-11.535 17.404-11.535 27.849v787.692c0 10.446 4.149 20.463 11.535 27.849s17.404 11.535 27.849 11.535h472.615c10.441-0.009 20.452-4.162 27.837-11.546s11.536-17.396 11.548-27.839v-236.307c0-10.446 4.147-20.463 11.536-27.849 7.385-7.386 17.404-11.535 27.849-11.535s20.464 4.149 27.849 11.535c7.385 7.386 11.536 17.404 11.536 27.849v236.307c-0.035 31.326-12.493 61.359-34.647 83.509-22.15 22.151-52.181 34.61-83.507 34.644h-472.615c-15.522 0.042-30.898-2.996-45.238-8.937s-27.358-14.67-38.301-25.678c-22.086-22.203-34.525-52.221-34.615-83.539v-787.692c0.090-31.319 12.529-61.334 34.615-83.539 10.943-11.008 23.961-19.736 38.301-25.679 14.34-5.939 29.716-8.98 45.238-8.936h472.615c31.327 0.035 61.357 12.493 83.507 34.647 22.154 22.15 34.611 52.181 34.647 83.507v236.308c0 10.445-4.151 20.464-11.536 27.849s-17.404 11.536-27.849 11.536zM1020.967 432.943c2.966 7.2 3.738 15.116 2.221 22.752-1.52 7.641-5.258 14.659-10.752 20.177l-157.515 157.495c-7.428 7.174-17.376 11.144-27.703 11.054s-20.204-4.232-27.506-11.534c-7.302-7.302-11.445-17.18-11.536-27.507s3.879-20.275 11.055-27.703l90.305-90.309h-613.845c-10.446 0-20.463-4.151-27.849-11.536s-11.535-17.404-11.535-27.849c0-10.445 4.15-20.464 11.535-27.849s17.404-11.536 27.849-11.536h613.845l-90.305-90.309c-3.761-3.631-6.762-7.979-8.826-12.784s-3.151-9.972-3.198-15.202c-0.043-5.23 0.953-10.417 2.934-15.254 1.977-4.84 4.903-9.24 8.602-12.938s8.094-6.621 12.934-8.602c4.84-1.981 10.027-2.977 15.258-2.93 5.23 0.043 10.398 1.13 15.202 3.194s9.149 5.065 12.784 8.826l157.515 157.511c3.659 3.675 6.558 8.034 8.531 12.832z" />
<glyph unicode="&#xe904;" glyph-name="change-num" d="M939.428 357.349c0-84.494-50.695-90.528-60.351-90.528h-742.020l159.629 159.631-42.548 42.848-211.23-211.227c-11.7-11.773-11.7-30.778 0-42.551l211.23-211.227 42.548 42.547-159.629 159.628h742.020c41.643 0 120.702 30.177 120.702 150.88v90.525h-60.351v-90.525zM94.51 538.375c0 84.493 50.695 90.528 60.351 90.528h742.019l-159.628-159.631 42.547-42.547 211.231 211.231c11.701 11.77 11.701 30.777 0 42.548l-211.231 211.23-42.848-42.85 159.928-159.629h-742.019c-41.643 0-120.703-30.176-120.703-150.88v-90.525h60.351v90.525z" />
<glyph unicode="&#xe905;" glyph-name="blocked" d="M512 928c-94.936 0-187.738-28.152-266.674-80.895s-140.458-127.709-176.788-215.417c-36.33-87.71-45.836-184.222-27.315-277.333s64.236-178.637 131.366-245.767c67.129-67.127 152.657-112.845 245.766-131.365 93.111-18.52 189.623-9.015 277.332 27.315s162.673 97.851 215.417 176.786c52.743 78.936 80.896 171.739 80.896 266.675-0.135 127.261-50.75 249.273-140.738 339.261s-212.001 140.603-339.262 140.739zM512 859.429c97.243 0.029 191.323-34.548 265.406-97.543l-579.429-579.427c-50.788 59.842-83.379 132.977-93.92 210.757-10.541 77.776 1.409 156.946 34.437 228.15s85.754 131.459 151.942 173.646 143.073 64.54 221.563 64.416zM512 36.571c-97.243-0.029-191.325 34.549-265.405 97.543l579.43 579.428c50.787-59.844 83.379-132.979 93.919-210.755 10.54-77.78-1.408-156.95-34.439-228.155-33.028-71.201-85.753-131.46-151.94-173.645-66.191-42.189-143.075-64.541-221.564-64.417z" />
<glyph unicode="&#xe906;" glyph-name="bell-border" d="M960 155.429l-71.636 95.495c-36.462 48.848-56.225 108.142-56.364 169.099v165.12c-0.091 76.884-27.86 151.166-78.226 209.256s-119.965 96.103-196.059 107.087v3.657c0 12.124-4.816 23.752-13.389 32.325s-20.202 13.389-32.325 13.389c-12.123 0-23.753-4.816-32.325-13.389s-13.389-20.201-13.389-32.325v-3.657c-76.096-10.983-145.694-48.997-196.061-107.087s-78.135-132.372-78.225-209.256v-165.12c-0.131-60.965-19.877-120.269-56.32-169.143l-71.68-95.451c-5.094-6.791-8.196-14.87-8.958-23.325s0.845-16.955 4.641-24.547c3.797-7.596 9.633-13.981 16.855-18.443 7.222-4.465 15.544-6.828 24.033-6.828h235.063c9.978-39.205 32.734-73.966 64.673-98.794s71.238-38.305 111.693-38.305c40.455 0 79.755 13.477 111.693 38.305s54.696 59.589 64.673 98.794h235.063c8.488 0 16.812 2.363 24.035 6.828 7.219 4.462 13.056 10.847 16.852 18.443 3.796 7.592 5.405 16.091 4.641 24.547-0.761 8.455-3.862 16.534-8.956 23.325zM512 36.571c-15.978 0.048-31.664 4.297-45.48 12.321s-25.278 19.54-33.24 33.393h157.44c-7.962-13.853-19.423-25.37-33.243-33.393-13.817-8.024-29.499-12.273-45.477-12.321zM192 173.714l16.823 22.4c48.258 64.691 74.416 143.199 74.606 223.909v165.12c0 60.621 24.082 118.759 66.947 161.624s101.004 66.947 161.625 66.947c60.621 0 118.758-24.082 161.624-66.947s66.948-101.003 66.948-161.624v-165.12c0.165-80.75 26.342-159.298 74.65-224l16.779-22.309h-640z" />
<glyph unicode="&#xe907;" glyph-name="error" d="M511.999 258.221c-28.628 0-52.625-24-52.625-52.627s23.997-52.627 52.625-52.627c27.576 0 52.625 24 51.362 51.366 1.263 30.099-22.524 53.888-51.362 53.888zM999.078 71.718c33.050 57.050 33.261 125.037 0.422 181.875l-329.638 570.87c-32.628 57.466-91.568 91.567-157.665 91.567s-125.037-34.312-157.664-91.357l-330.062-571.503c-32.838-57.466-32.627-125.882 0.631-182.925 32.838-56.416 91.567-90.304 157.243-90.304h658.442c65.888 0 125.037 34.31 158.291 91.776zM927.514 112.979c-18.317-31.578-50.733-50.31-86.938-50.31h-658.441c-35.784 0-67.991 18.31-85.884 49.254-18.103 31.366-18.314 68.832-0.211 100.41l330.063 571.295c17.892 31.364 49.888 49.888 86.094 49.888 35.995 0 68.202-18.734 86.094-50.099l329.849-571.295c17.683-30.733 17.472-67.782-0.627-99.142zM498.939 627.639c-25.050-7.156-40.627-29.891-40.627-57.466 1.263-16.629 2.316-33.469 3.579-50.099 3.578-63.36 7.156-125.457 10.735-188.817 1.263-21.471 17.892-37.049 39.363-37.049s38.311 16.627 39.363 38.312c0 13.051 0 25.050 1.263 38.311 2.316 40.626 4.842 81.252 7.157 121.879 1.263 26.312 3.578 52.625 4.842 78.937 0 9.473-1.263 17.892-4.842 26.312-10.736 23.576-35.785 35.574-60.835 29.68z" />
<glyph unicode="&#xe908;" glyph-name="close-round" d="M692.026 575.44l-129.24-127.44 129.24-127.44c3.597-3.37 6.464-7.44 8.422-11.958 1.965-4.518 2.976-9.395 2.976-14.323s-1.011-9.798-2.976-14.323c-1.958-4.518-4.826-8.589-8.422-11.955-3.366-3.334-7.354-5.978-11.738-7.77-4.39-1.792-9.082-2.694-13.824-2.669-9.44 0.038-18.496 3.789-25.197 10.438l-129.242 129.24-127.44-129.24c-6.705-6.65-15.756-10.4-25.2-10.438-4.737-0.026-9.434 0.877-13.82 2.669s-8.376 4.435-11.74 7.77c-6.705 6.746-10.468 15.872-10.468 25.382s3.763 18.63 10.468 25.376l127.44 129.242-127.44 127.44c-5.898 6.887-8.98 15.746-8.63 24.806s4.106 17.655 10.517 24.067c6.412 6.412 15.006 10.167 24.067 10.517s17.919-2.732 24.806-8.63l127.44-127.439 127.44 127.439c3.331 3.452 7.312 6.212 11.715 8.125 4.397 1.913 9.133 2.94 13.926 3.024 4.8 0.084 9.568-0.778 14.029-2.537 4.467-1.759 8.538-4.38 11.987-7.712 3.456-3.333 6.214-7.313 8.128-11.713s2.938-9.133 3.021-13.93c0.083-4.797-0.774-9.564-2.534-14.028s-4.378-8.538-7.712-11.989zM868.422 91.603c-70.483-70.483-160.288-118.477-258.054-137.92s-199.1-9.459-291.191 28.685c-92.091 38.15-170.801 102.752-226.179 185.632s-84.936 180.321-84.936 280c0 99.679 29.558 197.121 84.936 280.002s134.088 147.48 226.179 185.628c92.091 38.148 193.426 48.132 291.191 28.689s187.571-67.439 258.054-137.919c46.81-46.801 83.936-102.364 109.267-163.516s38.374-126.694 38.374-192.884c0-66.19-13.043-131.731-38.374-192.883s-62.458-116.717-109.267-163.514zM817.664 753.64c-60.474 60.266-137.453 101.261-221.21 117.809-83.759 16.547-170.543 7.905-249.393-24.836s-146.231-88.112-193.633-159.121c-47.403-71.010-72.701-154.473-72.701-239.85s25.298-168.844 72.701-239.852c47.402-71.008 114.783-126.381 193.633-159.123 78.85-32.736 165.634-41.382 249.393-24.832 83.757 16.544 160.737 57.542 221.21 117.805 40.275 40.134 72.23 87.827 94.035 140.339 21.805 52.508 33.024 108.805 33.024 165.663s-11.219 113.155-33.024 165.665c-21.805 52.51-53.76 100.2-94.035 140.334z" />
<glyph unicode="&#xe909;" glyph-name="arrow-up" d="M364.926 660.467l99.079 99.078v-524.118c0-12.731 5.057-24.94 14.059-33.941s21.211-14.057 33.941-14.057c12.731 0 24.939 5.055 33.941 14.057s14.059 21.211 14.059 33.941v524.118l99.078-99.078c4.453-4.477 9.745-8.032 15.574-10.46s12.080-3.683 18.394-3.692c6.314-0.009 12.568 1.229 18.403 3.641s11.137 5.953 15.603 10.418c4.467 4.465 8.007 9.767 10.421 15.603 2.406 5.835 3.65 12.089 3.635 18.403-0.007 6.314-1.258 12.565-3.686 18.394s-5.983 11.121-10.462 15.574l-181.018 181.020c-4.457 4.457-9.749 7.993-15.573 10.406s-12.066 3.654-18.369 3.654c-6.304 0-12.545-1.242-18.37-3.654s-11.115-5.948-15.572-10.406l-181.018-181.020c-4.477-4.453-8.032-9.745-10.46-15.574s-3.683-12.080-3.691-18.394c-0.009-6.314 1.229-12.568 3.641-18.403s5.952-11.137 10.418-15.603c4.465-4.465 9.767-8.005 15.602-10.418s12.090-3.65 18.404-3.641c6.314 0.009 12.565 1.263 18.394 3.692s11.121 5.983 15.574 10.46zM928 507.429c-12.727 0-24.942-5.057-33.938-14.059-9.004-9.002-14.065-21.211-14.065-33.941v-368h-735.996v368c0 12.731-5.057 24.94-14.059 33.941s-21.211 14.059-33.941 14.059c-12.731 0-24.939-5.057-33.941-14.059s-14.059-21.211-14.059-33.941v-384.004c0-21.211 8.429-41.56 23.431-56.561 15.003-15.009 35.351-23.435 56.569-23.435h768c21.219 0 41.567 8.426 56.569 23.435 15.002 15.002 23.435 35.35 23.435 56.561v384.004c0 12.731-5.061 24.94-14.065 33.941-8.997 9.002-21.211 14.059-33.938 14.059z" />
<glyph unicode="&#xe90a;" glyph-name="mark" d="M512 640c-105.856 0-192-86.144-192-192s86.144-192 192-192c105.856 0 192 86.144 192 192s-86.144 192-192 192zM512 320c-70.592 0-128 57.411-128 128 0 70.592 57.408 128 128 128 70.589 0 128-57.408 128-128 0-70.589-57.411-128-128-128zM992 480h-97.597c-15.488 186.24-164.163 334.912-350.403 350.4v97.6c0 17.664-14.336 32-32 32s-32-14.336-32-32v-97.6c-186.24-15.488-334.912-164.224-350.4-350.4h-97.6c-17.664 0-32-14.336-32-32s14.336-32 32-32h97.6c15.488-186.24 164.16-334.915 350.4-350.403v-97.597c0-17.664 14.336-32 32-32s32 14.336 32 32v97.597c186.24 15.488 334.915 164.163 350.403 350.403h97.597c17.664 0 32 14.275 32 32 0 17.6-14.336 32-32 32zM512 128c-176.448 0-320 143.555-320 320 0 176.448 143.552 320 320 320 176.445 0 320-143.552 320-320 0-176.445-143.555-320-320-320z" />
<glyph unicode="&#xe90b;" glyph-name="right-round" d="M738.33 610.461c15.621-15.625 15.621-40.953 0-56.57l-268.345-268.354c-15.625-15.616-40.945-15.616-56.57 0l-127.742 127.754c-15.625 15.616-15.625 40.943 0 56.56 15.617 15.625 40.945 15.625 56.563 0l99.461-99.461 240.063 240.070c15.626 15.617 40.95 15.617 56.571 0zM1024 448c0-283.008-229.033-512-512-512-283.008 0-512 229.033-512 512 0 283.008 229.031 512 512 512 283.008 0 512-229.031 512-512zM944 448c0 238.789-193.244 432-432 432-238.789 0-432-193.242-432-432 0-238.787 193.242-432 432-432 238.787 0 432 193.244 432 432z" />
<glyph unicode="&#xe90c;" glyph-name="arrow-down" d="M364.926 450.39l99.079-99.078v524.119c0 12.73 5.057 24.939 14.059 33.941s21.211 14.059 33.941 14.059c12.731 0 24.939-5.057 33.941-14.059s14.059-21.211 14.059-33.941v-524.119l99.078 99.078c4.453 4.477 9.745 8.032 15.574 10.46s12.080 3.683 18.394 3.692c6.314 0.009 12.568-1.229 18.403-3.641s11.137-5.953 15.603-10.418c4.467-4.465 8.007-9.767 10.421-15.603 2.406-5.835 3.65-12.089 3.635-18.403-0.007-6.314-1.258-12.565-3.686-18.394s-5.983-11.121-10.462-15.574l-181.018-181.021c-4.457-4.457-9.749-7.993-15.573-10.402-5.824-2.414-12.066-3.657-18.369-3.657s-12.545 1.243-18.37 3.657c-5.824 2.409-11.115 5.945-15.572 10.402l-181.018 181.021c-4.477 4.453-8.032 9.745-10.46 15.574s-3.683 12.080-3.691 18.394c-0.009 6.314 1.229 12.568 3.641 18.403s5.952 11.137 10.418 15.603c4.465 4.465 9.767 8.005 15.602 10.418s12.090 3.65 18.404 3.641c6.314-0.009 12.565-1.263 18.394-3.692s11.121-5.983 15.574-10.46zM928 507.429c-12.727 0-24.942-5.057-33.938-14.059-9.004-9.002-14.065-21.211-14.065-33.941v-368h-735.996v368c0 12.731-5.057 24.94-14.059 33.941s-21.211 14.059-33.941 14.059c-12.731 0-24.939-5.057-33.941-14.059s-14.059-21.211-14.059-33.941v-384.004c0-21.211 8.429-41.56 23.431-56.561 15.003-15.009 35.351-23.435 56.569-23.435h768c21.219 0 41.567 8.426 56.569 23.435 15.002 15.002 23.435 35.35 23.435 56.561v384.004c0 12.731-5.061 24.94-14.065 33.941-8.997 9.002-21.211 14.059-33.938 14.059z" />
<glyph unicode="&#xe90d;" glyph-name="xl-sheet" d="M564.419 920.68c-7.296 6.016-16.963 8.512-26.307 6.784l-512-96c-15.168-2.816-26.112-16-26.112-31.423v-703.999c0-15.36 10.944-28.611 26.112-31.427l512-96c1.92-0.384 3.968-0.573 5.888-0.573 7.363 0 14.659 2.56 20.419 7.357 7.357 6.083 11.581 15.171 11.581 24.643v895.998c0 9.536-4.224 18.56-11.581 24.64zM512 38.63l-448 83.968v650.882l448 83.967v-818.817zM992 800.050h-448c-17.664 0-32-14.336-32-32s14.336-32 32-32h416v-575.999h-416c-17.664 0-32-14.336-32-32s14.336-32 32-32h448c17.664 0 32 14.336 32 32v639.999c0 17.664-14.336 32-32 32zM672 672.050h-128c-17.664 0-32-14.336-32-32s14.336-32 32-32h128c17.664 0 32 14.336 32 32s-14.336 32-32 32zM672 544.050h-128c-17.664 0-32-14.336-32-32s14.336-32 32-32h128c17.664 0 32 14.336 32 32s-14.336 32-32 32zM672 416.051h-128c-17.664 0-32-14.336-32-32s14.336-32 32-32h128c17.664 0 32 14.336 32 32s-14.336 32-32 32zM672 288.051h-128c-17.664 0-32-14.336-32-32s14.336-32 32-32h128c17.664 0 32 14.336 32 32s-14.336 32-32 32zM864 672.050h-64c-17.664 0-32-14.336-32-32s14.336-32 32-32h64c17.664 0 32 14.336 32 32s-14.336 32-32 32zM864 544.050h-64c-17.664 0-32-14.336-32-32s14.336-32 32-32h64c17.664 0 32 14.336 32 32s-14.336 32-32 32zM864 416.051h-64c-17.664 0-32-14.336-32-32s14.336-32 32-32h64c17.664 0 32 14.336 32 32s-14.336 32-32 32zM864 288.051h-64c-17.664 0-32-14.336-32-32s14.336-32 32-32h64c17.664 0 32 14.336 32 32s-14.336 32-32 32zM440.119 341.094l-223.999 255.999c-11.776 13.376-31.936 14.656-45.184 3.008-13.312-11.648-14.656-31.872-3.008-45.12l224-255.999c6.335-7.235 15.168-10.947 24.064-10.947 7.487 0 14.975 2.627 21.119 7.936 13.312 11.648 14.656 31.811 3.008 45.123zM435.649 633.27c-13.952 10.944-34.048 8.32-44.928-5.568l-224-288c-10.816-13.952-8.32-34.109 5.632-44.928 5.888-4.541 12.8-6.717 19.648-6.717 9.472 0 18.944 4.224 25.216 12.288l224 287.997c10.88 14.016 8.384 34.112-5.568 44.928z" />
<glyph unicode="&#xe90f;" glyph-name="has" d="M616.719 2.714c-3.026 0-6.103 0.374-9.129 1.213-18.616 4.982-29.599 24.202-24.571 42.772l232.719 861.095c5.028 18.665 24.207 29.838 42.829 24.58 18.611-4.986 29.599-24.205 24.571-42.776l-232.724-861.095c-4.193-15.544-18.294-25.789-33.695-25.789zM174.543 2.714c-3.026 0-6.094 0.374-9.12 1.213-18.622 4.982-29.608 24.202-24.579 42.772l232.73 861.095c5.020 18.665 24.247 29.838 42.818 24.58 18.622-4.986 29.599-24.205 24.58-42.776l-232.73-861.095c-4.193-15.544-18.29-25.789-33.699-25.789zM896.005 235.459h-861.096c-19.27 0-34.909 15.636-34.909 34.908 0 19.267 15.639 34.908 34.909 34.908h861.096c19.267 0 34.908-15.642 34.908-34.908 0-19.272-15.642-34.908-34.908-34.908zM989.092 631.081h-861.083c-19.27 0-34.909 15.64-34.909 34.909s15.639 34.909 34.909 34.909h861.083c19.272 0 34.913-15.639 34.913-34.909s-15.642-34.909-34.913-34.909z" />
<glyph unicode="&#xe910;" glyph-name="cel-time" d="M771.999 500c22.093 0 40.003 17.909 40.003 40.001s-17.91 39.999-40.003 39.999c-22.088 0-39.997-17.908-39.997-39.999s17.91-40.001 39.997-40.001zM864 880h-51.999v40c0 22.092-17.91 40-40.003 40s-39.997-17.908-39.997-40v-40h-182.001v40c0 22.092-17.91 40-40.001 40s-40-17.908-40-40v-40h-180v40c0 22.092-17.908 40-40 40s-40-17.908-40-40v-40h-50c-88.224 0-160-71.776-160-160v-624c0-88.223 71.776-160 160-160h306c22.092 0 40 17.91 40 39.997 0 22.093-17.908 40.003-40 40.003h-306c-44.112 0-80 35.886-80 80v624c0 44.112 35.888 80 80 80h50v-40c0-22.092 17.908-40 40-40s40 17.908 40 40v40h180v-40c0-22.092 17.908-40 40-40s40.001 17.908 40.001 40v40h182.001v-40c0-22.092 17.905-40 39.997-40s40.003 17.908 40.003 40v40h51.999c44.114 0 80-35.888 80-80v-228c0-22.092 17.91-40.001 40.003-40.001 22.088 0 39.997 17.908 39.997 40.001v228c0 88.224-71.777 160-160 160zM781.998 419.999c-133.437 0-241.997-108.559-241.997-241.997 0-133.443 108.559-242.002 241.997-242.002 133.443 0 242.002 108.559 242.002 242.002 0 133.437-108.559 241.997-242.002 241.997zM781.998 16c-89.324 0-161.997 72.673-161.997 162.002s72.673 161.997 161.997 161.997c89.329 0 162.002-72.668 162.002-161.997s-72.673-162.002-162.002-162.002zM839.997 217.999h-17.997v41.999c0 22.093-17.91 40.003-40.003 40.003-22.088 0-39.997-17.91-39.997-40.003v-81.997c0-22.093 17.91-40.003 39.997-40.003h57.999c22.093 0 40.003 17.91 40.003 40.003 0 22.088-17.91 39.997-40.003 39.997zM598.001 500c22.093 0 39.997 17.909 39.997 40.001s-17.905 39.999-39.997 39.999c-22.093 0-40.003-17.908-40.003-39.999s17.91-40.001 40.003-40.001zM424 326.001c22.091 0 40 17.91 40 39.997 0 22.093-17.909 40.003-40 40.003s-40-17.91-40-40.003c0-22.088 17.909-39.997 40-39.997zM250 500c22.091 0 40 17.909 40 40.001s-17.909 39.999-40 39.999c-22.091 0-40-17.908-40-39.999s17.909-40.001 40-40.001zM250 326.001c22.091 0 40 17.91 40 39.997 0 22.093-17.909 40.003-40 40.003s-40-17.91-40-40.003c0-22.088 17.909-39.997 40-39.997zM250 152.003c22.091 0 40 17.905 40 39.997s-17.909 39.997-40 39.997c-22.091 0-40-17.905-40-39.997s17.909-39.997 40-39.997zM424 152.003c22.091 0 40 17.905 40 39.997s-17.909 39.997-40 39.997c-22.091 0-40-17.905-40-39.997s17.909-39.997 40-39.997zM424 500c22.091 0 40 17.909 40 40.001s-17.909 39.999-40 39.999c-22.091 0-40-17.908-40-39.999s17.909-40.001 40-40.001z" />
<glyph unicode="&#xe913;" glyph-name="location-fill" d="M512 960c-198.935 0-360.296-160.512-360.296-358.4 0-268.8 360.296-665.6 360.296-665.6s360.296 396.8 360.296 665.6c0 197.888-161.36 358.4-360.296 358.4zM512 473.6c-71.030 0-128.677 57.344-128.677 128s57.647 128 128.677 128c71.031 0 128.679-57.344 128.679-128s-57.647-128-128.679-128z" />
<glyph unicode="&#xe914;" glyph-name="cross-top" d="M942.31 851.289v-383.974c1.152-14.95-10.027-28.008-24.977-29.163-14.95-1.157-28.006 10.024-29.167 24.975-0.102 1.394-0.102 2.796 0.009 4.188l-0.196 318.505-760.078-760.076c-10.602-10.598-27.794-10.598-38.397 0-10.604 10.607-10.602 27.793 0 38.4l760.077 760.074h-318.313c-14.95-1.157-28.008 10.024-29.164 24.975s10.025 28.009 24.976 29.164c1.394 0.107 2.795 0.109 4.187 0h383.975c14.925-0.043 27.025-12.136 27.068-27.070z" />
<glyph unicode="&#xe915;" glyph-name="cross-bottom" d="M81.65 44.749l-0.001 383.977c-1.157 14.95 10.024 28.009 24.976 29.164 14.95 1.156 28.009-10.025 29.164-24.976 0.108-1.393 0.109-2.795 0-4.187l0.193-318.505 760.079 760.076c10.598 10.602 27.793 10.602 38.391-0.002 10.607-10.604 10.607-27.794 0-38.396l-760.073-760.074h318.312c14.95 1.152 28.009-10.027 29.164-24.977s-10.025-28.006-24.976-29.167c-1.394-0.102-2.795-0.102-4.187 0h-383.974c-14.928 0.043-27.022 12.143-27.067 27.068z" />
<glyph unicode="&#xe916;" glyph-name="round-eye" d="M589.611 84.753c-25.046-5.291-51.008-8.083-77.611-8.083-206.059 0-373.333 167.274-373.333 373.333 0 17.664-14.336 32-32 32s-32-14.336-32-32c0-241.367 195.968-437.333 437.333-437.333 31.147 0 61.546 3.263 90.859 9.475 17.28 3.666 28.352 20.644 24.682 37.929-3.648 17.278-20.651 28.351-37.93 24.678zM564.586 819.668c181.186-25.578 320.75-181.461 320.75-369.664 0-133.12-69.85-250.071-174.831-316.18-14.957-9.407-19.436-29.184-10.028-44.121 9.414-14.95 29.184-19.436 44.121-10.022 122.989 77.414 204.739 214.398 204.739 370.323 0 220.48-163.546 403.072-375.811 433.024-17.493 2.475-33.686-9.728-36.16-27.2-2.475-17.493 9.728-33.707 27.221-36.16zM165.547 589.268c40 99.306 121.472 177.514 222.912 213.12 16.683 5.845 25.451 24.127 19.606 40.789s-24.128 25.451-40.789 19.606c-118.826-41.706-214.251-133.312-261.099-249.6-6.592-16.384 1.344-35.051 17.728-41.643 16.384-6.613 35.029 1.345 41.643 17.729zM513.282 376.923c38.526 0 69.758 31.232 69.758 69.758s-31.232 69.759-69.758 69.759c-38.527 0-69.759-31.232-69.759-69.759s31.232-69.758 69.759-69.758zM732.89 466.003c-53.621 64.797-134.79 127.17-219.608 127.17-84.836 0-166.023-62.416-219.609-127.17-9.269-11.196-9.269-27.45 0-38.646 13.472-16.28 41.716-47.706 79.437-75.165 95.002-69.159 185.132-69.311 280.343 0 37.719 27.459 65.968 58.885 79.437 75.165 9.243 11.174 9.291 27.413 0 38.646zM513.282 544.342c53.854 0 97.662-43.808 97.662-97.662s-43.808-97.662-97.662-97.662c-53.854 0-97.662 43.809-97.662 97.662s43.808 97.662 97.662 97.662z" />
<glyph unicode="&#xe918;" glyph-name="subcategory" d="M573.598 823.927c-46.007 0-83.349-37.341-83.349-83.349v-231.33c0-46.054 37.342-83.349 83.349-83.349h285.773c22.097 0 43.294 8.764 58.914 24.384 15.671 15.625 24.435 36.864 24.435 58.965 0 49.676 0 127.167 0 176.891 0 22.1-8.764 43.294-24.435 58.916-15.62 15.67-36.817 24.433-58.914 24.433h-93.495c-2.859 0-5.619 1-7.765 2.857l-36.766 31.53c-15.1 12.907-34.342 20.051-54.251 20.051-22.383 0-61.965 0-93.495 0zM573.598 752.485h93.495c2.859 0 5.619-1 7.765-2.857l36.766-31.53c15.1-12.955 34.342-20.052 54.251-20.052h93.495c3.14 0 6.191-1.238 8.427-3.477 2.24-2.238 3.477-5.287 3.477-8.43v-176.891c0-3.191-1.237-6.191-3.477-8.431-2.236-2.236-5.286-3.477-8.427-3.477h-285.773c-6.571 0-11.904 5.338-11.904 11.908v231.33c0 6.573 5.333 11.907 11.904 11.907zM573.598 334.033c-46.007 0-83.349-37.295-83.349-83.349v-231.33c0-46.059 37.342-83.349 83.349-83.349h285.773c22.097 0 43.294 8.764 58.914 24.431 15.671 15.625 24.435 36.817 24.435 58.918 0 49.724 0 127.215 0 176.887 0 22.101-8.764 43.345-24.435 58.965-15.62 15.62-36.817 24.384-58.914 24.384h-93.495c-2.859 0-5.619 1.050-7.765 2.859l-36.766 31.531c-15.1 12.954-34.342 20.053-54.251 20.053-22.383 0-61.965 0-93.495 0zM573.598 262.588h93.495c2.859 0 5.619-0.998 7.765-2.854l36.766-31.484c15.1-12.954 34.342-20.1 54.251-20.1h93.495c3.14 0 6.191-1.237 8.427-3.477 2.24-2.236 3.477-5.239 3.477-8.431v-176.887c0-3.145-1.237-6.195-3.477-8.431-2.236-2.24-5.286-3.477-8.427-3.477h-285.773c-6.571 0-11.904 5.333-11.904 11.908v231.33c0 6.571 5.333 11.904 11.904 11.904zM406.823 150.319h-190.513c-32.863 0-59.535 26.675-59.535 59.537 0 214.042 0 714.423 0 714.423 0 19.718-16.003 35.721-35.721 35.721s-35.721-16.003-35.721-35.721v-714.423c0-72.346 58.63-130.978 130.977-130.978h190.513c19.718 0 35.721 16.004 35.721 35.721 0 19.721-16.003 35.721-35.721 35.721zM406.823 650.417h-285.769c-19.718 0-35.721-16.003-35.721-35.721s16.003-35.721 35.721-35.721h285.769c19.718 0 35.721 16.003 35.721 35.721s-16.003 35.721-35.721 35.721z" />
<glyph unicode="&#xe919;" glyph-name="category" d="M440 960h-400c-22.094 0-40-17.906-40-40v-400c0-22.093 17.906-40 40-40h400c22.093 0 40 17.907 40 40v400c0 22.094-17.907 40-40 40zM400 560h-320v320h320v-320zM999.313 412.954c-14.946 6.195-32.158 2.773-43.593-8.666l-400-400c-11.447-11.443-14.869-28.646-8.674-43.593 6.195-14.955 20.774-24.695 36.954-24.695h400c22.093 0 40 17.907 40 40v400c0 16.179-9.741 30.767-24.687 36.954zM944 16h-263.428l263.428 263.428v-263.428zM784 480c132.335 0 240 107.664 240 240s-107.665 240-240 240c-132.335 0-240-107.664-240-240s107.665-240 240-240zM784 880c88.226 0 160-71.773 160-160s-71.774-160-160-160c-88.226 0-160 71.773-160 160s71.774 160 160 160zM468.279 347.712l-171.709-171.712 171.709-171.712c15.629-15.625 15.629-40.951 0-56.567-15.616-15.62-40.943-15.625-56.561 0l-171.719 171.708-171.719-171.716c-15.617-15.616-40.945-15.616-56.562 0-15.625 15.625-15.625 40.951 0 56.567l171.711 171.721-171.711 171.712c-15.625 15.625-15.625 40.951 0 56.567 15.617 15.629 40.945 15.629 56.562 0l171.719-171.708 171.719 171.716c15.618 15.62 40.945 15.62 56.561 0 15.629-15.625 15.629-40.951 0-56.576z" />
<glyph unicode="&#xe91a;" glyph-name="bag" d="M994.189 797.326c-0.064 0-0.128 0.008-0.188 0.008h-272v30c0 49.625-40.375 90-90.001 90h-240c-49.625 0-90-40.375-90-90v-30h-272c-16.703 0-30-13.687-30-30v-660.001c0-49.626 40.375-90.001 90-90.001h843.999c49.626 0 90.001 40.375 90.001 90.001v659.368c0 0.039 0 0.078 0 0.117-1.148 19.703-13.265 30.398-29.811 30.508zM362 827.333c0 16.539 13.461 30 30 30h240c16.538 0 29.999-13.461 29.999-30v-30h-299.999v30zM952.375 737.333l-93.163-279.486c-4.087-12.271-15.526-20.514-28.454-20.514h-168.759v29.999c0 16.572-13.427 30.001-29.999 30.001h-240c-16.57 0-30-13.429-30-30.001v-29.999h-168.758c-12.93 0-24.367 8.243-28.453 20.514l-93.164 279.486h880.751zM602.001 437.333v-59.998h-180.001v59.998h180.001zM964.002 107.332c0-16.538-13.461-29.999-30.003-29.999h-843.999c-16.539 0-30 13.461-30 29.999v475.134l47.867-143.593c12.265-36.813 46.578-61.538 85.375-61.538h168.758v-30.003c0-16.567 13.429-29.999 30-29.999h240c16.572 0 29.999 13.431 29.999 29.999v30.003h168.759c38.797 0 73.109 24.725 85.376 61.538l47.868 143.593v-475.134z" />
<glyph unicode="&#xe91b;" glyph-name="dislike" d="M42.174 486.477c-12.774 16.994-20.356 38.106-20.356 60.956 0 33.854 16.65 63.876 42.174 82.362-12.774 16.996-20.356 38.106-20.356 60.956 0 33.854 16.63 63.894 42.154 82.38-12.766 16.992-20.336 38.098-20.336 60.938 0 56.054 45.604 101.66 101.66 101.66h320.033c52.71 0 104.465-9.384 153.818-27.892l100.075-37.526v45.808h282.961v-633.44h-282.965v87.326c-103.744-111.125-202.475-221.444-219.447-248.606v-117.999c0-23.782-19.345-43.127-43.127-43.127-98.078 0-177.872 79.791-177.872 177.873v53.227l32.16 111.083h-231.088c-56.054 0-101.66 45.606-101.66 101.658 0 33.856 16.65 63.876 42.174 82.364zM801.037 342.682h162.965v513.437h-162.965v-513.437zM101.66 362.458h310.924l-51.994-179.597v-44.715c0-59.268 43.97-108.459 100.999-116.668v106.001c0 14.532 0 26.005 147.546 187.959 55.42 60.83 111.381 120.427 131.9 142.208v348.582l-121.139 45.428c-42.594 15.972-87.253 24.072-132.749 24.072h-320.037c-22.97 0-41.66-18.69-41.66-41.66s18.688-41.658 41.66-41.658v-60h-21.818c-22.97 0-41.66-18.69-41.66-41.66s18.688-41.658 41.66-41.658v-60c-1.328 0-2.644 0.050-3.96 0.1v-0.1h-17.856c-22.97 0-41.66-18.69-41.66-41.66s18.688-41.658 41.66-41.658h3.738v-59.998h-25.556c-22.97 0-41.66-18.692-41.66-41.664 0.002-22.972 18.69-41.655 41.662-41.655z" />
<glyph unicode="&#xe91f;" glyph-name="age" d="M288.851 567.399c-10.718 28.86-55.078 28.346-65.128-0.744l-83.712-219.792c-13.802-36.74 41.96-57.946 56.070-21.355l13.49 35.418h93.084l13.334-35.332c14.22-36.779 69.792-15.441 56.136 21.184l-82.95 219.803c-0.102 0.274-0.21 0.546-0.324 0.818zM232.423 420.924l23.904 62.763 23.686-62.763h-47.59zM855.996 528.102c16.567 0 29.999 13.434 29.999 30.002s-13.431 30-29.999 30h-93.077c-16.572 0-30.003-13.432-30.003-30v-220.897c0-16.567 13.431-30.003 30.003-30.003h93.077c16.567 0 29.999 13.436 29.999 30.003s-13.431 29.999-29.999 29.999h-63.078v50.449h56.213c16.567 0 29.999 13.431 29.999 29.999 0 16.572-13.431 30.003-29.999 30.003h-56.213v50.445h63.078zM549.133 529.813c16.329 0 32.073-4.804 45.53-13.897 13.73-9.271 32.375-5.666 41.651 8.064s5.666 32.378-8.064 41.654c-23.411 15.818-50.769 24.178-79.117 24.178-78.007 0-141.466-63.464-141.466-141.467s63.459-141.466 141.466-141.466c74.317 0 126.221 58.172 126.221 141.466 0 16.567-13.431 29.999-29.999 29.999h-66.688c-16.572 0-30.003-13.431-30.003-29.999s13.431-29.999 30.003-29.999h32.845c-7.441-27.601-26.334-51.465-62.379-51.465-44.924 0-81.468 36.544-81.468 81.463 0 44.924 36.544 81.468 81.468 81.468zM994.001 477.999c-16.567 0-29.999-13.431-29.999-29.999 0-120.734-47.019-234.24-132.39-319.612s-198.878-132.39-319.612-132.39c-120.732 0-234.24 47.019-319.612 132.39s-132.388 198.878-132.388 319.612c0 120.734 47.016 234.24 132.388 319.612s198.88 132.388 319.612 132.388c60.544 0 119.283-11.758 174.583-34.95 31.573-13.232 61.513-30.032 89.318-50.078l-39.77-5.010c-39.027-5.114-31.27-64.344 7.501-59.53l107.324 13.52c15.97 1.322 28.663 16.576 26.987 32.526l-9.562 107.684c-1.468 16.504-16.038 28.702-32.538 27.23-16.503-1.466-28.693-16.034-27.23-32.536l3.179-35.79c-31.714 22.96-65.92 42.192-102.012 57.318-62.682 26.288-129.225 39.616-197.781 39.616-136.76 0-265.334-53.258-362.038-149.962s-149.962-225.278-149.962-362.038c0-136.759 53.258-265.335 149.962-362.039s225.278-149.961 362.038-149.961c136.759 0 265.335 53.257 362.039 149.961s149.961 225.28 149.961 362.039c0 16.567-13.431 29.999-29.999 29.999z" />
<glyph unicode="&#xe920;" glyph-name="intrested" d="M893.564 535.419h-164.087c12.851 17.766 23.983 36.367 32.252 55.469 10.419 24.125 15.778 47.813 15.906 70.422 0.273 45.391-16.768 88.719-46.729 118.86-25.506 25.656-58.377 39.789-92.548 39.789-40.038 0-77.099-19.492-102.929-51.75-25.826 32.258-62.89 51.75-102.929 51.75-38.101 0-73.609-17.133-99.992-48.219-25.094-29.578-39.047-68.664-39.289-110.070-0.133-22.688 5.039-46.453 15.359-70.649 8.172-19.148 19.281-37.797 32.133-55.601h-156.953c-10.75 0-20.68-5.751-26.031-15.086l-84.070-146.752c-10.258-17.899-10.203-39.241 0.141-57.101 10.289-17.749 28.648-28.352 49.11-28.352h60.406l8.539-150.485c-0.156-22.387 9.406-43.516 26.367-58.125 16.992-14.647 39.336-20.928 61.406-17.297l64.563 8.375 0.492-104.742c0.079-16.508 13.484-29.858 30-29.858h369.5c16.572 0 29.999 13.436 29.999 29.999v225.297c94.071 61.312 144.299 166.541 149.367 313.088 0.282 8.132-2.748 16.030-8.405 21.884-5.649 5.85-13.436 9.155-21.577 9.155zM432.499 759.958c32.797 0 62.626-25.836 74.202-64.289 3.823-12.68 15.492-21.351 28.727-21.351s24.909 8.672 28.727 21.351c11.58 38.453 41.399 64.289 74.202 64.289 18.078 0 35.836-7.844 49.993-22.086 18.782-18.898 29.461-46.672 29.282-76.203-0.077-14.5-3.78-30.297-10.982-46.969-13.321-30.813-36.659-60.875-62.417-87.656-0.529-0.499-1.024-1.024-1.506-1.562-39.437-40.657-84.19-73.523-107.375-89.519-14.626 10.001-37.82 26.675-62.93 47.885-54.086 45.679-91.664 90.883-108.664 130.719-7.078 16.602-10.625 32.32-10.539 46.742 0.32 54.399 35.883 98.649 79.281 98.649zM829.303 344.201c-22.515-48.299-55.249-84.322-100.083-110.118-9.306-5.35-15.040-15.275-15.040-26.010v-212.075h-309.642l-0.399 85.077 56.703 13.564c37.149 8.879 68.407 33.583 85.76 67.802 18.475 36.425 41.958 84.109 42.193 84.587 2.103 4.267 3.093 8.789 3.085 13.244 0 11.068-6.153 21.7-16.747 26.923-14.869 7.317-32.853 1.203-40.166-13.666-0.235-0.478-23.561-47.838-41.873-83.951-9.376-18.47-26.212-31.808-46.196-36.578l-78.305-18.731-97.265-12.625c-0.43-0.051-0.867-0.115-1.297-0.192-6.188-1.079-10.578 1.732-12.64 3.516-2.141 1.843-5.696 5.922-5.539 12.57 0.023 0.811 0.008 1.617-0.039 2.428l-9.5 167.526c1.258 3.311 1.946 6.891 1.946 10.641 0 16.567-13.438 29.999-30 29.999h-86.031l72.922 127.287h191.563c58.789-58.334 122.741-98.351 126.923-100.945 4.843-2.991 10.321-4.493 15.795-4.493 5.508 0 11.025 1.519 15.885 4.548 4.139 2.586 67.622 42.594 126.217 100.881h184.175c-4.416-50.436-15.283-94.468-32.401-131.209zM536.998 878.438c16.572 0 30.003 13.43 30.003 30v21.563c0 16.57-13.431 30-30.003 30-16.567 0-29.999-13.43-29.999-30v-21.563c0-16.57 13.431-30 29.999-30zM260.963 798.269c5.859-5.875 13.547-8.812 21.242-8.812 7.664 0 15.328 2.914 21.18 8.758 11.734 11.695 11.758 30.688 0.062 42.422l-19.125 19.172c-11.695 11.735-30.695 11.758-42.422 0.055-11.735-11.695-11.758-30.688-0.063-42.422l19.125-19.172zM795.089 789.457c7.684 0 15.381 2.938 21.239 8.812l19.119 19.172c11.695 11.735 11.669 30.727-0.064 42.422-11.725 11.703-30.724 11.68-42.419-0.055l-19.119-19.172c-11.703-11.734-11.678-30.726 0.055-42.422 5.858-5.844 13.521-8.758 21.188-8.758zM169.833 595.49h22.836c16.57 0 30 13.437 30 30 0 16.57-13.43 30-30 30h-22.836c-16.57 0-30-13.43-30-30 0-16.562 13.43-30 30-30zM904.683 655.49h-23.266c-16.572 0-29.999-13.43-29.999-30 0-16.562 13.427-30 29.999-30h23.266c16.572 0 29.999 13.437 29.999 30 0 16.57-13.427 30-29.999 30z" />
<glyph unicode="&#xe921;" glyph-name="range" d="M30.118 779.302h963.764c16.636 0 30.118-13.484 30.118-30.118v-602.351c0-16.636-13.483-30.118-30.118-30.118h-963.764c-16.634 0-30.118 13.483-30.118 30.118v602.351c0 16.634 13.484 30.118 30.118 30.118zM60.236 719.066v-542.119h903.532v542.119h-903.532zM223.298 478.126h577.402l-38.938 38.938c-11.763 11.762-11.763 30.832 0 42.592 11.763 11.762 30.831 11.762 42.59 0l90.355-90.352c11.759-11.762 11.759-30.832 0-42.592l-90.355-90.353c-11.759-11.759-30.831-11.759-42.59 0-11.759 11.763-11.763 30.833 0 42.594l38.938 38.938h-577.402l38.938-38.938c11.762-11.762 11.762-30.831 0-42.594-11.762-11.759-30.832-11.759-42.592 0l-90.352 90.353c-11.762 11.762-11.762 30.832 0 42.592l90.352 90.352c11.762 11.762 30.832 11.762 42.592 0 11.762-11.762 11.762-30.832 0-42.592l-38.938-38.938z" />
<glyph unicode="&#xe922;" glyph-name="location-1" d="M487.038-50.641c5.564-8.346 14.932-13.359 24.962-13.359s19.398 5.013 24.962 13.359c70.999 106.496 175.571 238.016 248.446 371.78 58.266 106.953 86.592 198.17 86.592 278.861 0 198.504-161.498 360-360 360-198.504 0-360-161.496-360-360 0-80.691 28.326-171.908 86.594-278.861 72.818-133.662 177.592-265.506 248.444-371.78zM512 900c165.419 0 299.998-134.58 299.998-300 0-70.409-25.933-152.235-79.279-250.159-62.814-115.298-152.452-232.256-220.719-330.577-68.258 98.308-157.9 215.275-220.718 330.577-53.348 97.924-79.282 179.75-79.282 250.159 0 165.42 134.58 300 300 300zM512 420.002c99.251 0 180.002 80.747 180.002 179.998s-80.751 180-180.002 180c-99.252 0-180-80.748-180-180s80.748-179.998 180-179.998zM512 720c66.167 0 120-53.832 120-120s-53.833-120-120-120c-66.168 0-120 53.832-120 120s53.832 120 120 120z" />
<glyph unicode="&#xe923;" glyph-name="mail" d="M873.95 832h-723.902c-31.298-0.034-61.304-12.482-83.435-34.613s-34.579-52.137-34.613-83.435v-531.906c0.034-31.296 12.482-61.303 34.613-83.435s52.137-34.577 83.435-34.611h723.902c31.3 0.034 61.308 12.48 83.439 34.611s34.577 52.139 34.611 83.435v531.906c-0.034 31.298-12.48 61.304-34.611 83.435s-52.139 34.579-83.439 34.613zM150.048 768h723.902c14.332-0.017 28.070-5.717 38.199-15.849 10.133-10.132 15.834-23.87 15.851-38.199v-24.48l-416-267.424-416 267.424v24.48c0.017 14.329 5.717 28.067 15.849 38.199s23.87 15.832 38.199 15.849zM873.95 128h-723.902c-14.329 0.017-28.067 5.717-38.199 15.851-10.132 10.129-15.832 23.868-15.849 38.195v431.33l398.686-256.286c5.167-3.324 11.174-5.090 17.314-5.090s12.147 1.766 17.314 5.090l398.686 256.286v-431.33c-0.017-14.327-5.717-28.066-15.851-38.195-10.129-10.133-23.868-15.834-38.199-15.851z" />
<glyph unicode="&#xe924;" glyph-name="call" d="M962.84 240.137c-1.727 1.434-197.494 140.911-250.355 132.194-25.498-4.506-40.061-21.905-69.28-56.712-4.701-5.614-16.032-19.033-24.781-28.601-18.468 6.019-36.486 13.352-53.907 21.94-89.929 43.783-162.592 116.447-206.374 206.377-8.591 17.421-15.923 35.435-21.94 53.904 9.599 8.783 23.050 20.112 28.797 24.944 34.641 29.058 52.010 43.652 56.516 69.184 9.24 52.859-130.76 248.559-132.197 250.322-6.376 9.042-14.679 16.556-24.312 21.999s-20.353 8.679-31.388 9.475c-56.745 0-218.75-210.13-218.75-245.555 0-2.057 2.971-211.142 260.802-473.415 261.977-257.536 471.064-260.506 473.121-260.506 35.39 0 245.555 162.006 245.555 218.749-0.806 11.037-4.047 21.758-9.496 31.388-5.449 9.635-12.965 17.933-22.012 24.313zM745.169 31.179c-28.343 2.418-203.994 25.564-423.396 241.081-216.563 220.481-239.124 396.43-241.376 423.692 42.796 67.171 94.48 128.245 153.648 181.562 1.306-1.306 3.036-3.265 5.257-5.811 45.377-61.943 84.466-128.255 116.688-197.953-10.479-10.541-21.554-20.472-33.172-29.744-18.016-13.727-34.56-29.286-49.366-46.427-2.505-3.515-4.288-7.492-5.247-11.701s-1.073-8.566-0.336-12.819c6.91-29.931 17.492-58.891 31.507-86.227 50.211-103.108 133.528-186.413 236.644-236.606 27.327-14.038 56.289-24.629 86.225-31.544 4.252-0.735 8.611-0.619 12.818 0.338s8.188 2.743 11.7 5.249c17.203 14.866 32.817 31.472 46.592 49.557 10.249 12.212 23.93 28.503 29.122 33.106 69.877-32.189 136.334-71.324 198.38-116.816 2.707-2.284 4.635-4.047 5.908-5.191-53.319-59.187-114.408-110.881-181.595-153.68v-0.067zM537.257 683.962c51.939-0.052 101.737-20.707 138.463-57.433s57.384-86.523 57.433-138.463c0-8.659 3.442-16.963 9.563-23.085s14.429-9.563 23.089-9.563c8.655 0 16.963 3.442 23.085 9.563s9.563 14.425 9.563 23.085c-0.080 69.251-27.621 135.641-76.591 184.608-48.965 48.966-115.356 76.51-184.605 76.588-8.659 0-16.963-3.44-23.085-9.563-6.126-6.123-9.563-14.427-9.563-23.086s3.437-16.964 9.563-23.087c6.122-6.123 14.425-9.563 23.085-9.563zM537.257 847.212c95.219-0.112 186.502-37.986 253.827-105.314 67.33-67.328 105.205-158.611 105.316-253.828 0-8.659 3.437-16.963 9.563-23.085 6.122-6.126 14.425-9.563 23.085-9.563s16.963 3.437 23.089 9.563c6.122 6.122 9.563 14.425 9.563 23.085-0.134 112.53-44.891 220.412-124.461 299.983s-187.454 124.329-299.983 124.459c-8.659 0-16.963-3.44-23.085-9.563-6.126-6.123-9.563-14.427-9.563-23.086s3.437-16.964 9.563-23.087c6.122-6.123 14.425-9.563 23.085-9.563z" />
<glyph unicode="&#xe926;" glyph-name="massge" d="M870.4 960h-716.8c-87.040 0-153.6-66.56-153.6-153.6v-512c0-81.92 66.56-153.6 153.6-153.6v-204.8l337.92 204.8h378.88c87.040 0 153.6 66.56 153.6 153.6v512c0 87.040-66.56 153.6-153.6 153.6zM921.6 294.4c0-30.72-20.48-51.2-51.2-51.2h-409.6l-204.8-128v128h-102.4c-30.72 0-51.2 20.48-51.2 51.2v512c0 30.72 20.48 51.2 51.2 51.2h716.8c30.72 0 51.2-20.48 51.2-51.2v-512zM256 601.604h102.4v-102.4h-102.4v102.4zM460.791 601.604h102.4v-102.4h-102.4v102.4zM665.583 601.604h102.4v-102.4h-102.4v102.4z" />
<glyph unicode="&#xe927;" glyph-name="minimize" d="M1012.46 892.768l-247.846-247.847h141.233c21.75 0 39.383-17.634 39.383-39.386 0-21.75-17.633-39.383-39.383-39.383h-236.308c-21.75 0-39.383 17.633-39.383 39.383v236.308c0 21.75 17.633 39.384 39.383 39.384s39.383-17.634 39.383-39.384v-141.233l247.849 247.847c15.387 15.389 40.308 15.389 55.689 0s15.391-40.31 0-55.69zM354.464 881.228c-21.751 0-39.386-17.634-39.386-39.384v-141.233l-247.847 247.847c-15.389 15.389-40.31 15.389-55.69 0s-15.389-40.31 0-55.69l247.847-247.847h-141.233c-21.75 0-39.384-17.634-39.384-39.386 0-21.75 17.634-39.383 39.384-39.383h236.308c21.75 0 39.383 17.633 39.383 39.383v236.308c0 21.75-17.633 39.384-39.383 39.384zM1012.46 3.229l-247.846 247.846h141.233c21.75 0 39.383 17.637 39.383 39.386s-17.633 39.383-39.383 39.383h-236.308c-21.75 0-39.383-17.633-39.383-39.383v-236.308c0-21.75 17.633-39.383 39.383-39.383s39.383 17.633 39.383 39.383v141.233l247.849-247.846c7.69-7.69 17.77-11.54 27.843-11.54s20.156 3.85 27.846 11.54c15.391 15.377 15.391 40.308 0 55.689zM354.464 329.844h-236.308c-21.75 0-39.384-17.633-39.384-39.383s17.634-39.386 39.384-39.386h141.233l-247.847-247.846c-15.389-15.391-15.389-40.311 0-55.689 7.69-7.69 17.772-11.54 27.845-11.54s20.155 3.85 27.845 11.54l247.847 247.846v-141.233c0-21.75 17.635-39.383 39.386-39.383 21.75 0 39.383 17.633 39.383 39.383v236.308c0 21.75-17.633 39.383-39.383 39.383z" />
<glyph unicode="&#xe928;" glyph-name="call-up" d="M36.035 771.854c-8.874-14.315-12.977-31.621-10.345-49.12 32.409-215.348 146.048-401.044 320.004-522.849 173.935-121.791 387.299-165.064 600.724-121.851 17.347 3.51 32.205 13.284 42.617 26.517 12.158 15.448 18.255 35.603 15.178 56.017l-24.101 160.428c-5.693 37.688-43.902 64.442-81.264 56.902-53.178-10.766-106.584-12.94-158.483-6.479-25.814 3.505-52.48-8.485-65.922-28.058l-86.933-94.678c-124.007 38.623-201.039 92.532-278.739 195.147l57.609 111.335c15.413 22.011 17.804 50.278 6.065 74.132-23.944 46.794-40.17 97.719-48.274 151.37-2.82 18.883-12.891 35.212-28.33 46.023-15.419 10.796-34.208 14.675-52.902 10.887l-159.441-32.285c-20.246-4.102-37.105-16.732-47.464-33.439z" />
<glyph unicode="&#xe929;" glyph-name="call-down" d="M1004.209 406.975c-0.796 14.229-6.353 28.216-16.668 39.067-126.98 133.535-295.869 207.092-475.561 207.092-179.669 0-348.559-73.558-475.519-207.092-10.317-10.852-15.873-24.838-16.669-39.065-0.929-16.606 4.627-33.537 16.669-46.192l94.563-99.499c22.239-23.359 61.706-23.359 83.944 0 31.635 33.272 67.596 60.697 106.704 81.409 19.594 10.096 32.256 31.35 32.075 51.442l14.304 107.813c104.702 33.414 184.259 33.433 287.915 0.019l14.104-105.129c0-22.736 12.064-43.49 31.776-54.327 39.31-20.814 75.268-48.237 106.925-81.492 11.118-11.717 26.025-18.148 41.972-18.148 15.927 0 30.834 6.432 41.952 18.129l94.846 99.76c12.040 12.669 17.597 29.606 16.668 46.214z" />
<glyph unicode="&#xe92a;" glyph-name="makie" d="M483.422 228.57c-120.996 0-219.428 98.432-219.428 219.43v292.571c0 120.997 98.432 219.429 219.428 219.429 120.998 0 219.43-98.432 219.43-219.429v-292.571c0-120.998-98.432-219.43-219.43-219.43zM483.422 886.857c-80.657 0-146.285-65.627-146.285-146.286v-292.571c0-80.657 65.627-146.287 146.285-146.287s146.287 65.63 146.287 146.287v292.571c0 80.658-65.63 146.286-146.287 146.286zM812.565 521.143c-20.198 0-36.57-16.375-36.57-36.574v-36.57c0-161.327-131.247-292.57-292.574-292.57-161.325 0-292.571 131.243-292.571 292.57v36.57c0 20.198-16.375 36.574-36.571 36.574s-36.571-16.375-36.571-36.574v-36.57c0-189.321 144.594-345.455 329.143-363.857v-74.999h-73.143c-20.197 0-36.571-16.375-36.571-36.574 0-20.194 16.375-36.57 36.571-36.57h219.427c20.198 0 36.574 16.375 36.574 36.57 0 20.198-16.375 36.574-36.574 36.574h-73.139v74.999c184.546 18.411 329.139 174.545 329.139 363.857v36.57c0 20.198-16.371 36.574-36.57 36.574zM917.814 931.899c17.731-15.52 19.524-42.475 4.004-60.207l-786.833-898.956c-15.52-17.731-42.475-19.524-60.207-4.004s-19.524 42.475-4.004 60.207l786.833 898.956c15.52 17.731 42.475 19.524 60.207 4.004z" />
<glyph unicode="&#xe92b;" glyph-name="sound" d="M226.133 179.2h-172.8c-23.467 0-42.667 19.2-42.667 42.667v452.269c0 23.467 19.2 42.667 42.667 42.667h172.8c23.467 0 42.667-19.2 42.667-42.667v-454.402c-2.133-21.333-21.333-40.533-42.667-40.533zM93.867 262.4h89.6v371.202h-89.6v-371.202zM580.267-53.329c-8.533 0-17.067 2.133-23.467 6.4l-356.267 234.667c-10.667 8.533-19.2 21.333-19.2 34.133v447.998c0 14.933 6.4 27.733 19.2 34.133l356.267 234.667c12.8 8.533 29.867 8.533 42.667 2.133s21.333-21.333 21.333-36.267v-919.465c0-14.933-8.533-29.867-21.333-36.267-4.267 0-10.667-2.133-19.2-2.133zM266.667 247.471l273.067-179.2v761.598l-273.067-181.333v-401.065zM870.396 160c-10.667 0-21.333 4.267-29.867 12.8-17.067 17.067-17.067 42.667 0 59.733 117.333 119.467 117.333 313.599 0 435.199-17.067 17.067-14.933 42.667 0 59.733 17.067 17.067 42.667 14.933 59.733 0 149.333-151.467 149.333-398.932 0-552.532-6.4-10.667-17.067-14.933-29.867-14.933zM742.396 290.129c-10.667 0-21.333 4.267-29.867 12.8-17.067 17.067-17.067 42.667 0 59.733 46.933 46.933 46.933 123.733 0 172.799-17.067 17.067-14.933 42.667 0 59.733 17.067 17.067 42.667 14.933 59.733 0 78.933-78.932 78.933-209.066 0-290.132-8.533-10.667-19.2-14.933-29.867-14.933z" />
<glyph unicode="&#xe92d;" glyph-name="maximize" d="M1024 920.615v-236.308c0-21.75-17.634-39.385-39.386-39.385-21.747 0-39.386 17.635-39.386 39.385v141.233l-247.846-247.848c-7.689-7.69-17.771-11.54-27.844-11.54s-20.156 3.85-27.844 11.54c-15.39 15.389-15.39 40.31 0 55.69l247.846 247.848h-141.231c-21.751 0-39.386 17.634-39.386 39.384s17.634 39.385 39.386 39.385h236.305c21.751 0 39.386-17.634 39.386-39.385zM382.307 633.383l-247.848 247.848h141.233c21.75 0 39.385 17.634 39.385 39.384s-17.635 39.385-39.385 39.385h-236.308c-21.75 0-39.385-17.634-39.385-39.385v-236.308c0-21.75 17.634-39.385 39.385-39.385s39.384 17.635 39.384 39.385v141.233l247.848-247.848c7.69-7.69 17.772-11.54 27.845-11.54s20.155 3.85 27.845 11.54c15.389 15.38 15.389 40.31 0 55.69zM984.614 251.076c-21.747 0-39.386-17.634-39.386-39.386v-141.231l-247.846 247.846c-15.39 15.39-40.307 15.39-55.689 0s-15.39-40.311 0-55.689l247.846-247.846h-141.231c-21.751 0-39.386-17.638-39.386-39.386 0-21.751 17.634-39.386 39.386-39.386h236.305c21.751 0 39.386 17.634 39.386 39.386v236.305c0 21.751-17.634 39.386-39.386 39.386zM382.307 318.306c-15.389 15.39-40.31 15.39-55.69 0l-247.848-247.846v141.231c0 21.751-17.634 39.386-39.384 39.386s-39.385-17.634-39.385-39.386v-236.305c0-21.751 17.634-39.386 39.385-39.386h236.308c21.75 0 39.385 17.634 39.385 39.386 0 21.747-17.635 39.386-39.385 39.386h-141.233l247.848 247.846c15.389 15.377 15.389 40.307 0 55.689z" />
<glyph unicode="&#xe92e;" glyph-name="send" d="M1013.248 494.797c-10.522 21.726-28.063 39.267-49.787 49.787l-809.413 391.67c-53.32 25.832-117.484 3.547-143.316-49.773-13.16-27.167-14.267-58.623-3.044-86.647l140.747-351.799-140.747-351.835c-21.923-55.188 5.048-117.704 60.239-139.628 12.479-4.956 25.778-7.532 39.206-7.593 16.247 0 32.284 3.666 46.915 10.732l809.408 391.772c53.325 25.83 75.617 89.994 49.792 143.314zM122.902 24.182c-17.776-8.607-39.163-1.172-47.768 16.604-4.385 9.057-4.75 19.543-1.008 28.882l137.028 342.61h713.789l-802.041-388.096zM211.156 483.795l-137.028 342.609c-5.703 13.657-2.162 29.428 8.831 39.334 10.642 10.369 26.711 12.802 39.942 6.043l802.041-387.986h-713.787z" />
<glyph unicode="&#xe92f;" glyph-name="camera" d="M875.136 736h-137.405l-16 48c-7.716 23.307-22.584 43.586-42.491 57.95-19.912 14.364-43.843 22.080-68.393 22.050h-197.694c-24.543 0.019-48.467-7.702-68.368-22.066s-34.766-34.635-42.481-57.934l-16.032-48h-137.408c-30.984-0.034-60.689-12.357-82.598-34.266s-34.232-51.614-34.266-82.598v-470.4c0.068-30.961 12.406-60.631 34.311-82.514s51.591-34.186 82.553-34.222h726.4c30.961 0.067 60.636 12.406 82.514 34.314 21.883 21.903 34.186 51.589 34.222 82.55v470.4c-0.067 30.962-12.406 60.634-34.309 82.515-21.908 21.881-51.594 34.187-82.555 34.221zM928 148.864c-0.015-14.013-5.591-27.453-15.503-37.361-9.907-9.912-23.347-15.488-37.361-15.503h-726.272c-14.015 0.015-27.451 5.591-37.362 15.503-9.91 9.907-15.485 23.347-15.502 37.361v470.4c0.051 13.993 5.641 27.397 15.547 37.279s23.324 15.44 37.317 15.457h160.48c6.714 0.005 13.256 2.122 18.7 6.050s9.515 9.469 11.636 15.838l23.328 69.984c3.503 10.527 10.233 19.682 19.234 26.167s19.816 9.97 30.91 9.961h197.694c11.1 0.012 21.919-3.476 30.925-9.968 9.001-6.492 15.729-15.657 19.22-26.192l23.327-69.952c2.125-6.369 6.195-11.91 11.638-15.838s11.986-6.045 18.698-6.050h160.481c14.013-0.017 27.453-5.592 37.361-15.502 9.912-9.91 15.488-23.346 15.503-37.362v-470.272zM512 640c-47.468 0-93.869-14.076-133.337-40.447s-70.23-63.854-88.394-107.708c-18.165-43.854-22.918-92.11-13.658-138.666s32.118-89.318 65.683-122.885c33.565-33.562 76.328-56.422 122.884-65.679 46.555-9.262 94.811-4.511 138.664 13.655 43.858 18.166 81.336 48.927 107.709 88.397 26.373 39.465 40.448 85.868 40.448 133.335-0.067 63.631-25.375 124.637-70.369 169.631s-105.999 70.302-169.631 70.369zM512 224c-34.809 0-68.837 10.322-97.78 29.66s-51.502 46.828-64.822 78.986c-13.321 32.159-16.806 67.549-10.016 101.689s23.554 65.501 48.167 90.115c24.614 24.614 55.974 41.376 90.115 48.167s69.531 3.305 101.689-10.015c32.159-13.321 59.648-35.879 78.986-64.823s29.66-62.971 29.66-97.78c-0.051-46.664-18.611-91.397-51.604-124.396-32.998-32.993-77.732-51.553-124.396-51.604zM832 544c17.674 0 32 14.327 32 32s-14.326 32-32 32c-17.674 0-32-14.327-32-32s14.326-32 32-32z" />
<glyph unicode="&#xe930;" glyph-name="image" d="M914.002 838h-804.002c-29.164-0.032-57.125-11.631-77.747-32.253s-32.222-48.583-32.253-77.747v-560.003c0.032-29.164 11.631-57.124 32.253-77.742 20.622-20.623 48.583-32.225 77.747-32.256h804.002c29.164 0.031 57.124 11.633 77.747 32.256 20.618 20.618 32.22 48.579 32.251 77.742v560.003c-0.031 29.164-11.633 57.124-32.251 77.747-20.623 20.622-48.584 32.222-77.747 32.253zM60 728c0 13.261 5.267 25.978 14.644 35.355s22.095 14.645 35.356 14.645h804.002c13.261 0 25.979-5.267 35.354-14.645s14.643-22.094 14.643-35.355v-560.003c0-1.336 0-2.637-0.179-3.999l-247.997 264.481c-2.796 2.992-6.175 5.38-9.928 7.017s-7.798 2.489-11.894 2.503c-4.101-0.001-8.161-0.842-11.924-2.473s-7.153-4.015-9.958-7.007l-56.417-60.18-163.501 179.84c-2.812 3.094-6.239 5.565-10.062 7.257s-7.957 2.565-12.137 2.565c-4.18 0-8.315-0.873-12.138-2.565s-7.25-4.163-10.062-7.257l-347.8-382.522c0 0.788 0 1.567 0 2.34v560.003zM110 118.001c-3.721 0.005-7.431 0.42-11.060 1.239l331.060 364.161 144.52-158.982-64.74-69.059c-2.757-2.862-4.917-6.246-6.355-9.948-1.439-3.707-2.127-7.66-2.024-11.633s0.992-7.885 2.619-11.51c1.627-3.625 3.958-6.892 6.859-9.61 2.898-2.719 6.313-4.833 10.036-6.221s7.685-2.022 11.658-1.864c3.968 0.154 7.869 1.101 11.474 2.775 3.604 1.679 6.835 4.055 9.513 6.989l140.442 149.801 229.842-245.161c-3.241-0.65-6.538-0.978-9.841-0.978h-804.002zM784 478c23.731 0 46.935 7.037 66.668 20.223s35.113 31.927 44.196 53.854c9.083 21.927 11.459 46.055 6.83 69.333s-16.056 44.66-32.84 61.442c-16.783 16.782-38.164 28.211-61.445 32.841-23.276 4.631-47.406 2.254-69.33-6.829-21.929-9.082-40.668-24.463-53.857-44.197-13.184-19.734-20.224-42.934-20.219-66.668 0.036-31.815 12.687-62.316 35.185-84.812s52.997-35.151 84.813-35.188zM784 658c11.868 0 23.465-3.519 33.336-10.111 9.866-6.593 17.556-15.964 22.098-26.928s5.729-23.027 3.415-34.666c-2.319-11.639-8.033-22.33-16.425-30.721s-19.082-14.106-30.72-16.421c-11.638-2.315-23.7-1.127-34.668 3.415-10.962 4.541-20.332 12.231-26.926 22.098-6.589 9.867-10.112 21.467-10.112 33.334 0 15.913 6.323 31.174 17.577 42.426 11.249 11.252 26.511 17.573 42.424 17.573z" />
<glyph unicode="&#xe932;" glyph-name="smile" d="M422.4 550.391c0 35.318-28.631 63.951-63.952 63.951s-63.954-28.633-63.954-63.951c0-35.323 28.633-63.952 63.954-63.952s63.952 28.629 63.952 63.952zM729.553 550.391c0 35.318-28.634 63.951-63.953 63.951s-63.949-28.633-63.949-63.951c0-35.323 28.629-63.952 63.949-63.952s63.953 28.629 63.953 63.952zM416.579 288.973c-18.185 10.914-41.769 5.018-52.679-13.167-10.909-18.18-5.014-41.766 13.169-52.676 39.254-23.552 88.066-34.266 134.935-34.266s95.68 10.709 134.933 34.257c18.185 10.91 24.081 34.492 13.171 52.676-10.901 18.185-34.487 24.081-52.672 13.171-24.734-14.835-59.115-23.317-95.433-23.317-36.314 0-70.694 8.482-95.425 23.322zM1024 448c0 282.77-229.227 512-512 512-282.769 0-512-229.23-512-512s229.231-512 512-512c282.773 0 512 229.231 512 512zM76.788 448c0 240.361 194.851 435.212 435.212 435.212 240.363 0 435.213-194.851 435.213-435.212 0-240.358-194.85-435.213-435.213-435.213-240.361 0-435.212 194.854-435.212 435.213z" />
<glyph unicode="&#xe933;" glyph-name="phone" d="M980.4 227.931c-1.769 1.468-201.887 144.043-255.92 135.134-26.066-4.608-40.949-22.397-70.821-57.975-4.807-5.74-16.384-19.456-25.333-29.235-18.876 6.15-37.291 13.648-55.103 22.431-91.928 44.754-166.204 119.030-210.96 210.96-8.782 17.808-16.277 36.223-22.428 55.102 9.812 8.978 23.563 20.559 29.437 25.498 35.41 29.703 53.166 44.622 57.772 70.721 9.445 54.034-133.666 254.082-135.134 255.885-6.517 9.243-15.006 16.924-24.852 22.487s-20.805 8.872-32.086 9.686c-58.005 0-223.611-214.8-223.611-251.012 0-2.103 3.037-215.835 266.598-483.933 267.8-263.265 481.53-266.303 483.635-266.303 36.176 0 251.011 165.609 251.011 223.613-0.819 11.281-4.136 22.244-9.705 32.085-5.569 9.847-13.255 18.335-22.5 24.855zM757.891 14.33c-28.974 2.469-208.528 26.135-432.807 246.437-221.375 225.383-244.437 405.239-246.74 433.108 43.747 68.664 96.58 131.096 157.062 185.598 1.335-1.335 3.104-3.338 5.373-5.941 46.385-63.32 86.344-131.106 119.282-202.352-10.711-10.776-22.033-20.928-33.909-30.405-18.417-14.032-35.328-29.937-50.463-47.459-2.561-3.593-4.384-7.658-5.363-11.96s-1.097-8.756-0.344-13.104c7.063-30.596 17.881-60.201 32.207-88.143 51.327-105.399 136.495-190.556 241.901-241.87 27.934-14.342 57.544-25.173 88.145-32.239 4.346-0.751 8.801-0.637 13.102 0.347 4.301 0.978 8.368 2.799 11.964 5.359 17.579 15.201 33.542 32.176 47.622 50.665 10.479 12.481 24.468 29.138 29.77 33.843 71.43-32.905 139.366-72.914 202.786-119.415 2.77-2.338 4.739-4.142 6.042-5.308-54.505-60.501-116.946-113.345-185.628-157.093v-0.068zM545.347 681.626c53.096-0.053 103.994-21.168 141.541-58.71 37.541-37.542 58.652-88.446 58.709-141.538 0-8.852 3.516-17.341 9.774-23.6s14.751-9.775 23.598-9.775c8.852 0 17.345 3.516 23.603 9.775s9.774 14.748 9.774 23.6c-0.080 70.788-28.234 138.654-78.29 188.708-50.051 50.055-117.919 78.21-188.707 78.29-8.852 0-17.341-3.516-23.6-9.775s-9.775-14.748-9.775-23.6c0-8.851 3.516-17.34 9.775-23.599s14.748-9.775 23.6-9.775zM545.347 848.501c97.332-0.115 190.641-38.831 259.466-107.655s107.543-162.137 107.657-259.469c0-8.851 3.516-17.34 9.774-23.599 6.263-6.259 14.751-9.775 23.603-9.775s17.34 3.516 23.598 9.775c6.258 6.259 9.774 14.748 9.774 23.599-0.131 115.030-45.887 225.31-127.221 306.648-81.34 81.338-191.619 127.092-306.649 127.225-8.852 0-17.341-3.516-23.6-9.775s-9.775-14.748-9.775-23.6c0-8.851 3.516-17.34 9.775-23.599s14.748-9.775 23.6-9.775z" />
<glyph unicode="&#xe934;" glyph-name="video" d="M948.772 706.758c-14.853 8.017-31.631 11.792-48.486 10.913-16.86-0.88-33.152-6.381-47.094-15.9l-177.367-119.031v94.645c-0.031 26.062-10.399 51.049-28.826 69.478-18.432 18.429-43.418 28.795-69.478 28.824h-458.744c-26.062-0.029-51.048-10.396-69.477-28.824s-28.795-43.416-28.825-69.478v-458.741c0.029-26.066 10.396-51.052 28.825-69.478 18.429-18.432 43.415-28.795 69.477-28.826h458.744c26.061 0.031 51.046 10.394 69.478 28.826 18.427 18.427 28.795 43.412 28.826 69.478v94.65l177.398-119.036c13.911-9.585 30.203-15.124 47.073-16.005 16.865-0.881 33.649 2.934 48.476 11.018 16.891 9.38 30.909 23.178 40.55 39.921 9.636 16.737 14.541 35.789 14.172 55.101v327.427c0.369 19.317-4.531 38.369-14.172 55.113s-23.66 30.545-40.55 39.926zM610.289 218.644c-0.010-8.689-3.466-17.019-9.61-23.163-6.144-6.139-14.469-9.595-23.158-9.605h-458.744c-8.687 0.010-17.015 3.466-23.158 9.605-6.143 6.144-9.598 14.474-9.609 23.163v458.741c0.010 8.688 3.466 17.016 9.609 23.159s14.471 9.598 23.158 9.609h458.744c8.689-0.010 17.014-3.466 23.158-9.609s9.6-14.471 9.61-23.159v-458.741zM937.964 284.308c0.353-7.444-1.326-14.843-4.854-21.402-3.533-6.564-8.776-12.042-15.181-15.846-4.357-2.463-9.329-3.625-14.326-3.338-4.997 0.282-9.805 1.997-13.855 4.936l-213.924 143.546v111.619l213.883 143.521c4.076 2.897 8.888 4.584 13.88 4.867s9.964-0.85 14.341-3.268c6.4-3.805 11.643-9.279 15.171-15.836 3.533-6.557 5.212-13.95 4.864-21.388v-327.411z" />
<glyph unicode="&#xe935;" glyph-name="bell" d="M907.176 229.737c-62.669 52.97-98.606 130.394-98.606 212.417v115.556c0 145.854-108.344 266.591-248.685 286.818v44.763c0 22.921-18.569 41.448-41.448 41.448s-41.448-18.527-41.448-41.448v-44.763c-140.383-20.226-248.686-140.963-248.686-286.818v-115.556c0-82.022-35.935-159.447-98.977-212.748-16.123-13.804-25.366-33.865-25.366-55.086 0-39.995 32.536-72.533 72.533-72.533h683.885c39.999 0 72.533 32.539 72.533 72.533 0 21.221-9.24 41.282-25.737 55.418zM518.436-64.010c75.060 0 137.855 53.511 152.279 124.343h-304.558c14.424-70.832 77.217-124.343 152.279-124.343z" />
<glyph unicode="&#xe936;" glyph-name="location" d="M871.357 744.067c-29.865 58.883-74.051 109.313-128.502 146.654-54.446 37.341-117.412 60.395-183.098 67.043-29.715 2.981-59.654 2.981-89.37 0-65.687-6.652-128.648-29.706-183.099-67.043s-98.646-87.759-128.523-146.635c-37.59-75.122-52.109-159.687-41.73-243.045s45.195-161.78 100.059-225.391l267.542-325.274c3.695-4.495 8.339-8.115 13.6-10.604 5.261-2.483 11.007-3.773 16.825-3.773s11.564 1.29 16.825 3.773c5.261 2.488 9.906 6.108 13.6 10.604l267.542 325.274c54.866 63.606 89.677 142.024 100.060 225.38 10.378 83.355-4.142 167.917-41.733 243.036zM752.184 325.688l-237.121-288.292-237.101 288.302c-44.451 51.917-72.807 115.666-81.602 183.447s2.354 136.654 32.082 198.198c23.9 47.337 59.315 87.908 102.99 117.983s94.21 48.689 146.958 54.132c12.186 1.223 24.425 1.825 36.672 1.804 12.261 0.011 24.515-0.612 36.711-1.867 52.743-5.436 103.273-24.045 146.947-54.113s79.084-70.634 102.984-117.966c29.722-61.541 40.868-130.412 32.072-198.188-8.791-67.774-37.146-131.518-81.592-183.44zM515.059 763.112c-38.948 0-77.023-11.55-109.407-33.188s-57.625-52.394-72.53-88.378c-14.905-35.984-18.805-75.579-11.206-113.779s26.354-73.289 53.895-100.831c27.54-27.54 62.63-46.295 100.83-53.893s77.795-3.702 113.779 11.208c35.982 14.904 66.738 40.141 88.38 72.528 21.637 32.385 33.188 70.458 33.188 109.407-0.061 52.21-20.828 102.263-57.748 139.181-36.915 36.918-86.971 57.685-139.18 57.746zM515.059 448.029c-23.369 0-46.214 6.93-65.644 19.913s-34.575 31.436-43.518 53.027c-8.943 21.59-11.283 45.347-6.724 68.268s15.813 43.974 32.337 60.498c16.524 16.524 37.578 27.778 60.498 32.337s46.678 2.219 68.268-6.724c21.591-8.943 40.044-24.087 53.027-43.518 12.981-19.43 19.914-42.275 19.914-65.644-0.036-31.326-12.493-61.36-34.646-83.511-22.151-22.151-52.185-34.611-83.511-34.646z" />
<glyph unicode="&#xe937;" glyph-name="search" d="M660.41 226.803c-82.291-63.923-185.855-94.080-289.603-84.333-103.748 9.754-199.88 58.682-268.82 136.819-68.94 78.144-105.505 179.624-102.251 283.779s46.085 203.153 119.769 276.838c73.684 73.684 172.683 116.514 276.838 119.769s205.635-33.311 283.773-102.251c78.144-68.94 127.072-165.071 136.826-268.82 9.747-103.748-20.41-207.313-84.339-289.609l273.92-272.896-72.704-72.704-272.896 273.408h-0.512zM409.532 243.187c40.342 0 80.289 7.949 117.56 23.386s71.137 38.067 99.663 66.594c28.528 28.526 51.152 62.392 66.595 99.663 15.437 37.272 23.379 77.219 23.379 117.56s-7.942 80.289-23.379 117.56c-15.443 37.272-38.067 71.137-66.595 99.663-28.526 28.526-62.392 51.154-99.663 66.593s-77.218 23.384-117.56 23.384c-81.475 0-159.612-32.365-217.223-89.976s-89.977-135.749-89.977-217.224c0-81.475 32.365-159.612 89.977-217.223 57.611-57.608 135.748-89.98 217.223-89.98z" />
<glyph unicode="&#xe938;" glyph-name="Group-2" d="M396.8 448c0-63.514 51.686-115.2 115.2-115.2s115.2 51.686 115.2 115.2c0 63.514-51.686 115.2-115.2 115.2s-115.2-51.686-115.2-115.2zM396.8 64c0-63.514 51.686-115.2 115.2-115.2s115.2 51.686 115.2 115.2c0 63.514-51.686 115.2-115.2 115.2s-115.2-51.686-115.2-115.2zM396.8 832c0-63.514 51.686-115.2 115.2-115.2s115.2 51.686 115.2 115.2c0 63.514-51.686 115.2-115.2 115.2s-115.2-51.686-115.2-115.2z" />
<glyph unicode="&#xe939;" glyph-name="store" d="M992 624v80c-0.145 4.892-1.344 9.696-3.52 14.080l-78.080 156.8c-7.983 15.988-20.267 29.432-35.477 38.816-15.206 9.385-32.734 14.339-50.603 14.303h-624.64c-17.871 0.035-35.396-4.918-50.604-14.303s-27.494-22.828-35.476-38.816l-78.080-156.48c-2.221-4.482-3.423-9.399-3.52-14.4v-80c0.037-23.667 5.893-46.962 17.054-67.833s27.282-38.676 46.946-51.847v-472.32h-32c-8.487 0-16.626-3.371-22.627-9.374-6.001-5.999-9.373-14.14-9.373-22.626s3.371-16.627 9.373-22.626c6.001-6.003 14.141-9.374 22.627-9.374h896c8.486 0 16.627 3.371 22.626 9.374 6.003 5.999 9.374 14.14 9.374 22.626s-3.371 16.627-9.374 22.626c-5.999 6.003-14.14 9.374-22.626 9.374h-32v472.32c19.665 13.171 35.785 30.977 46.946 51.847s17.015 44.166 17.054 67.833zM928 624c0-21.218-8.427-41.566-23.433-56.569-15.002-15.003-35.349-23.431-56.567-23.431s-41.566 8.428-56.567 23.431c-15.006 15.003-23.433 35.351-23.433 56.569v48h160v-48zM96 624v48h160v-48c0-21.218-8.428-41.566-23.431-56.569s-35.351-23.431-56.569-23.431c-21.217 0-41.565 8.428-56.569 23.431s-23.431 35.351-23.431 56.569zM320 672h160v-48c0-21.218-8.427-41.566-23.433-56.569-15.002-15.003-35.35-23.431-56.567-23.431s-41.565 8.428-56.569 23.431c-15.003 15.003-23.431 35.351-23.431 56.569v48zM544 672h160v-48c0-21.218-8.427-41.566-23.433-56.569-15.002-15.003-35.349-23.431-56.567-23.431s-41.566 8.428-56.567 23.431c-15.006 15.003-23.433 35.351-23.433 56.569v48zM170.88 846.4c2.684 5.326 6.802 9.796 11.891 12.906s10.946 4.736 16.909 4.694h624.64c5.965 0.041 11.819-1.585 16.909-4.694s9.207-7.58 11.891-12.906l55.040-110.4h-792.32l55.040 110.4zM608 32h-192v192c0 8.486 3.372 16.627 9.373 22.626 6 6.003 14.141 9.374 22.627 9.374h128c8.486 0 16.627-3.371 22.626-9.374 6.003-5.999 9.374-14.14 9.374-22.626v-192zM864 32h-192v192c0 25.459-10.116 49.877-28.117 67.883-18.005 18.001-42.423 28.117-67.883 28.117h-128c-25.461 0-49.879-10.116-67.882-28.117-18.004-18.005-28.118-42.423-28.118-67.883v-192h-192v448c5.297-0.849 10.64-1.382 16-1.6 21.601 0.188 42.884 5.231 62.272 14.758s36.384 23.292 49.728 40.282c13.498-16.704 30.562-30.178 49.941-39.433s40.583-14.059 62.059-14.059c21.476 0 42.679 4.804 62.059 14.059s36.442 22.729 49.941 39.433c13.5-16.704 30.562-30.178 49.941-39.433s40.585-14.059 62.059-14.059c21.474 0 42.679 4.804 62.059 14.059s36.442 22.729 49.941 39.433c13.504-16.695 30.571-30.157 49.95-39.403 19.375-9.246 40.58-14.042 62.050-14.037 5.329-0.316 10.671-0.316 16 0v-448z" />
<glyph unicode="&#xe93a;" glyph-name="user" d="M874.039 298.039c-55.765 55.765-122.142 97.045-194.56 122.035 77.564 53.423 128.521 142.829 128.521 243.925 0 163.214-132.787 296-296 296-163.214 0-296-132.786-296-296 0-101.096 50.958-190.502 128.524-243.925-72.42-24.99-138.796-66.27-194.562-122.035-96.704-96.704-149.962-225.28-149.962-362.039h80c0 238.208 193.794 432 432 432 238.208 0 432-193.792 432-432h80c0 136.759-53.257 265.335-149.961 362.039zM512 448c-119.102 0-216 96.896-216 216s96.898 216 216 216c119.104 0 216-96.896 216-216s-96.896-216-216-216z" />
<glyph unicode="&#xe93b;" glyph-name="delete" d="M828.773 674.264c-12.003 0-23.512-4.768-31.998-13.255s-13.255-19.996-13.255-31.998v-506.421c-1.299-22.883-11.585-44.327-28.622-59.66s-39.441-23.313-62.335-22.202h-361.115c-22.893-1.111-45.298 6.869-62.335 22.202s-27.324 36.777-28.622 59.66v506.421c0 12.003-4.768 23.512-13.254 31.998s-19.997 13.255-31.998 13.255c-12.002 0-23.512-4.768-31.998-13.255s-13.254-19.996-13.254-31.998v-506.421c1.292-46.893 21.114-91.361 55.126-123.668s79.44-49.819 126.336-48.699h361.115c46.896-1.12 92.326 16.392 126.337 48.699s53.834 76.775 55.125 123.668v506.421c0 12.003-4.766 23.512-13.253 31.998s-19.997 13.255-31.998 13.255zM874.020 810.021h-181.009v90.505c0 12.002-4.768 23.512-13.255 31.998s-19.997 13.254-31.998 13.254h-271.515c-12.003 0-23.512-4.768-31.998-13.254s-13.255-19.997-13.255-31.998v-90.505h-181.010c-12.002 0-23.512-4.768-31.998-13.254s-13.254-19.996-13.254-31.998c0-12.001 4.768-23.512 13.254-31.998s19.997-13.255 31.998-13.255h724.040c12.003 0 23.512 4.768 31.998 13.255s13.255 19.997 13.255 31.998c0 12.003-4.768 23.512-13.255 31.998s-19.996 13.254-31.998 13.254zM421.495 810.021v45.253h181.009v-45.253h-181.009zM466.747 221.738v316.767c0 12.003-4.766 23.512-13.253 31.998s-19.997 13.255-31.998 13.255c-12.003 0-23.512-4.768-31.998-13.255s-13.255-19.996-13.255-31.998v-316.767c0-12.003 4.768-23.513 13.255-31.998 8.487-8.487 19.996-13.255 31.998-13.255 12.001 0 23.512 4.768 31.998 13.255 8.487 8.485 13.253 19.996 13.253 31.998zM647.762 221.738v316.767c0 12.003-4.768 23.512-13.253 31.998-8.487 8.487-19.997 13.255-31.998 13.255-12.003 0-23.513-4.768-31.998-13.255-8.487-8.487-13.255-19.996-13.255-31.998v-316.767c0-12.003 4.768-23.513 13.255-31.998 8.485-8.487 19.996-13.255 31.998-13.255 12.001 0 23.512 4.768 31.998 13.255 8.485 8.485 13.253 19.996 13.253 31.998z" />
<glyph unicode="&#xe93c;" glyph-name="Add-image" d="M987.429 155.429h-109.714v109.714c0 9.699-3.853 19.001-10.711 25.86-6.859 6.858-16.162 10.711-25.86 10.711s-19.001-3.853-25.86-10.711c-6.858-6.859-10.711-16.162-10.711-25.86v-109.714h-109.714c-9.699 0-19.001-3.853-25.86-10.711-6.858-6.859-10.711-16.162-10.711-25.86s3.853-19.001 10.711-25.86c6.859-6.858 16.162-10.711 25.86-10.711h109.714v-109.714c0-9.699 3.853-19.001 10.711-25.86 6.859-6.858 16.162-10.711 25.86-10.711s19.001 3.853 25.86 10.711c6.858 6.859 10.711 16.162 10.711 25.86v109.714h109.714c9.699 0 19.001 3.853 25.86 10.711 6.858 6.859 10.711 16.162 10.711 25.86s-3.853 19.001-10.711 25.86c-6.859 6.858-16.162 10.711-25.86 10.711zM548.571 155.429h-438.857c-9.699 0-19.001 3.853-25.86 10.711s-10.711 16.162-10.711 25.86v94.72l146.286 146.286 83.749-84.114c3.4-3.427 7.444-6.148 11.902-8.005 4.456-1.858 9.236-2.813 14.064-2.813s9.608 0.955 14.064 2.813c4.457 1.856 8.502 4.577 11.902 8.005l193.463 193.829 156.891-157.257c6.887-6.887 16.226-10.755 25.966-10.755s19.079 3.868 25.966 10.755c6.887 6.887 10.755 16.226 10.755 25.966s-3.868 19.079-10.755 25.966l-182.857 182.857c-3.4 3.427-7.444 6.148-11.902 8.005-4.456 1.858-9.236 2.813-14.064 2.813s-9.608-0.955-14.064-2.813c-4.457-1.856-8.502-4.577-11.902-8.005l-193.463-193.829-83.749 84.114c-3.4 3.427-7.444 6.148-11.902 8.005-4.456 1.858-9.236 2.813-14.064 2.813s-9.608-0.955-14.064-2.813c-4.457-1.856-8.502-4.577-11.902-8.005l-120.32-120.686v460.434c0 9.699 3.853 19.001 10.711 25.86s16.161 10.711 25.86 10.711h658.286c9.699 0 19.001-3.853 25.86-10.711 6.858-6.858 10.711-16.161 10.711-25.86v-438.857c0-9.699 3.853-19.001 10.711-25.86 6.859-6.858 16.162-10.711 25.86-10.711s19.001 3.853 25.86 10.711c6.858 6.859 10.711 16.162 10.711 25.86v438.857c0 29.098-11.559 57.004-32.135 77.58s-48.482 32.135-77.58 32.135h-658.286c-29.098 0-57.004-11.559-77.58-32.135s-32.135-48.482-32.135-77.58v-658.286c0-29.098 11.559-57.005 32.135-77.58s48.482-32.135 77.58-32.135h438.857c9.699 0 19.001 3.853 25.86 10.711 6.858 6.859 10.711 16.162 10.711 25.86s-3.853 19.001-10.711 25.86c-6.859 6.858-16.162 10.711-25.86 10.711zM219.429 704c0-21.7 6.435-42.911 18.491-60.954 12.055-18.041 29.19-32.104 49.238-40.409 20.047-8.303 42.107-10.477 63.39-6.243 21.282 4.234 40.831 14.683 56.175 30.027s25.793 34.894 30.027 56.175c4.234 21.283 2.060 43.343-6.243 63.39-8.305 20.048-22.367 37.183-40.409 49.238-18.043 12.055-39.254 18.491-60.954 18.491-29.098 0-57.005-11.559-77.58-32.135s-32.135-48.482-32.135-77.58zM365.714 704c0-7.232-2.145-14.304-6.163-20.318s-9.731-10.702-16.413-13.47c-6.682-2.768-14.036-3.492-21.13-2.082-7.095 1.412-13.61 4.895-18.726 10.009-5.114 5.116-8.597 11.631-10.009 18.726-1.41 7.093-0.686 14.447 2.082 21.13s7.455 12.395 13.47 16.413c6.014 4.018 13.084 6.163 20.318 6.163 9.699 0 19.001-3.853 25.86-10.711 6.858-6.859 10.711-16.162 10.711-25.86z" />
<glyph unicode="&#xe93d;" glyph-name="plus" d="M955.073 497.231h-393.838v393.849c0 27.169-22.059 49.228-49.239 49.228-27.168 0-49.227-22.058-49.227-49.228v-393.849h-393.849c-27.169 0-49.228-22.059-49.228-49.227 0-27.179 22.058-49.239 49.228-49.239h393.849v-393.838c0-27.179 22.059-49.239 49.227-49.239 27.179 0 49.239 22.059 49.239 49.239v393.838h393.838c27.179 0 49.239 22.059 49.239 49.239 0 27.168-22.059 49.227-49.239 49.227z" />
<glyph unicode="&#xe93e;" glyph-name="aroow-down" d="M969.921 619.672l-426.666-379.26c-8.652-7.6-19.773-11.792-31.289-11.792s-22.638 4.192-31.289 11.792l-426.666 379.26c-8.81 8.462-14.013 19.998-14.525 32.203s3.706 24.136 11.776 33.307c8.070 9.17 19.368 14.872 31.539 15.915s24.275-2.651 33.788-10.313l395.378-351.289 395.377 351.289c4.614 4.433 10.081 7.886 16.065 10.15s12.368 3.293 18.762 3.025c6.394-0.268 12.669-1.828 18.443-4.586s10.934-6.656 15.161-11.461c4.227-4.804 7.435-10.415 9.438-16.493s2.753-12.5 2.207-18.876c-0.546-6.376-2.384-12.576-5.387-18.225-3.009-5.65-7.128-10.631-12.112-14.645z" />
<glyph unicode="&#xe93f;" glyph-name="pen" d="M979.855 800.311l-87.726 87.738c-40.090 40.085-105.303 40.084-145.388 0-37.745-37.744-614.197-614.242-652.72-652.765-4.103-4.106-6.853-9.559-7.832-14.894l-43.865-236.892c-1.7-9.185 1.227-18.616 7.832-25.221 6.612-6.615 16.048-9.533 25.221-7.834l236.872 43.868c5.474 1.024 10.855 3.799 14.89 7.834l652.716 652.768c40.182 40.178 40.187 105.214 0 145.398zM105.613 13.737l26.535 143.304 116.755-116.767-143.291-26.537zM307.085 62.316l-152.897 152.909 558.214 558.257 152.899-152.908-558.215-558.258zM939.745 695.026l-34.335-34.341-152.899 152.908 34.34 34.34c17.961 17.968 47.196 17.97 65.162 0l87.731-87.738c18.012-18.011 18.012-47.157 0-65.17z" />
<glyph unicode="&#xe940;" glyph-name="close" d="M605.814 447.16l398.725 398.736c25.948 25.936 25.948 67.872 0 93.808-25.938 25.936-67.871 25.936-93.809 0l-398.736-398.737-398.725 398.737c-25.948 25.936-67.871 25.936-93.807 0-25.948-25.936-25.948-67.872 0-93.808l398.725-398.736-398.725-398.74c-25.948-25.933-25.948-67.871 0-93.804 12.926-12.938 29.921-19.441 46.904-19.441s33.966 6.502 46.904 19.441l398.725 398.735 398.736-398.735c12.938-12.938 29.921-19.441 46.904-19.441s33.966 6.502 46.904 19.441c25.948 25.933 25.948 67.871 0 93.804l-398.725 398.74z" />
<glyph unicode="&#xe941;" glyph-name="left-arrow" d="M969.143 475.43h-803.932l241.965 241.965c4.367 4.217 7.848 9.261 10.244 14.839 2.399 5.577 3.657 11.576 3.712 17.646 0.051 6.070-1.104 12.089-3.405 17.708-2.297 5.618-5.691 10.722-9.984 15.014-4.29 4.292-9.395 7.687-15.013 9.985-5.621 2.299-11.641 3.455-17.708 3.402-6.071-0.053-12.070-1.314-17.647-3.71s-10.622-5.878-14.839-10.245l-320-319.999c-8.57-8.572-13.385-20.198-13.385-32.322 0-12.12 4.814-23.746 13.385-32.318l320-320c8.622-8.327 20.17-12.935 32.157-12.833 11.984 0.106 23.45 4.915 31.927 13.389 8.477 8.477 13.283 19.942 13.389 31.927 0.102 11.988-4.506 23.534-12.833 32.157l-241.965 241.964h803.932c12.123 0 23.749 4.816 32.325 13.389 8.572 8.576 13.389 20.202 13.389 32.325 0 12.127-4.816 23.753-13.389 32.325-8.576 8.573-20.202 13.39-32.325 13.39z" />
</font>
</defs>
</svg>
