<svg id="Layer_1" data-name="Layer 1" xmlns="http://www.w3.org/2000/svg" viewBox="0 0 512 512"><g id="Daily_input" data-name="Daily  input"><path d="M488.29,391.74,464.64,360.2V196.29a31.16,31.16,0,0,0-31.13-31.13H373.34a6.23,6.23,0,0,0,0,12.45h60.17a18.7,18.7,0,0,1,18.68,18.68V356.05H130.58a6.21,6.21,0,0,0-5,2.49l-24.9,33.2a6.22,6.22,0,0,0-1.24,3.74v16.59a31.16,31.16,0,0,0,31.12,31.13H458.41a31.17,31.17,0,0,0,31.13-31.13V395.48A6.23,6.23,0,0,0,488.29,391.74ZM133.69,368.5H455.3l15.56,20.75H118.13Zm343.4,43.57a18.7,18.7,0,0,1-18.68,18.68H130.58a18.7,18.7,0,0,1-18.68-18.68V401.7H288.27v10.37a6.23,6.23,0,1,0,12.45,0V401.7H477.09Z"/><path d="M215.65,165.16H155.48a31.17,31.17,0,0,0-31.13,31.13V337.38a6.23,6.23,0,0,0,12.45,0V196.29a18.7,18.7,0,0,1,18.68-18.68h60.17a6.23,6.23,0,0,0,0-12.45Z"/><path d="M387.39,193.9a6.22,6.22,0,0,0-5.75-3.84h-27V59.34a6.22,6.22,0,0,0-6.23-6.22H240.55a6.22,6.22,0,0,0-6.23,6.22V190.06h-27a6.23,6.23,0,0,0-4.4,10.63l87.14,87.14a6.24,6.24,0,0,0,8.81,0L386,200.69A6.22,6.22,0,0,0,387.39,193.9ZM294.5,274.63l-72.12-72.12h18.17a6.22,6.22,0,0,0,6.22-6.22V65.57h95.45V196.28a6.23,6.23,0,0,0,6.22,6.23h18.17Z"/><circle cx="294.5" cy="127.81" r="6.22" transform="matrix(0.16, -0.99, 0.99, 0.16, 121.16, 398.03)"/><circle cx="265.45" cy="127.81" r="6.22"/><circle cx="323.54" cy="127.81" r="6.22"/></g></svg>