<svg width="45" height="44" viewBox="0 0 45 44" fill="none" xmlns="http://www.w3.org/2000/svg">
<path d="M22.75 43.9727C34.8852 43.9727 44.7227 34.1352 44.7227 22C44.7227 9.86484 34.8852 0.0273438 22.75 0.0273438C10.6148 0.0273438 0.777344 9.86484 0.777344 22C0.777344 34.1352 10.6148 43.9727 22.75 43.9727Z" fill="url(#paint0_linear_1367_285)"/>
<path d="M27.418 9.79297H18.0918C13.9316 9.79297 10.5527 13.1719 10.5527 17.332V26.6582C10.5527 30.8184 13.9316 34.1973 18.0918 34.1973H27.418C31.5781 34.1973 34.957 30.8184 34.957 26.6582V17.332C34.957 13.1719 31.5781 9.79297 27.418 9.79297ZM32.2324 26.668C32.2324 29.3242 30.0742 31.4922 27.4082 31.4922H18.082C15.4258 31.4922 13.2578 29.334 13.2578 26.668V17.3418C13.2578 14.6855 15.416 12.5176 18.082 12.5176H27.4082C30.0645 12.5176 32.2324 14.6758 32.2324 17.3418V26.668Z" fill="white"/>
<path d="M22.75 15.7598C19.3125 15.7598 16.5098 18.5625 16.5098 22C16.5098 25.4375 19.3125 28.2402 22.75 28.2402C26.1875 28.2402 28.9902 25.4375 28.9902 22C28.9902 18.5625 26.1875 15.7598 22.75 15.7598ZM22.75 25.7891C20.6602 25.7891 18.9609 24.0898 18.9609 22C18.9609 19.9102 20.6602 18.2109 22.75 18.2109C24.8398 18.2109 26.5391 19.9102 26.5391 22C26.5391 24.0898 24.8398 25.7891 22.75 25.7891Z" fill="white"/>
<path d="M29.4654 16.444C30.0403 16.3508 30.4308 15.8092 30.3376 15.2342C30.2444 14.6593 29.7028 14.2688 29.1279 14.362C28.553 14.4552 28.1625 14.9968 28.2557 15.5717C28.3489 16.1467 28.8905 16.5372 29.4654 16.444Z" fill="white"/>
<defs>
<linearGradient id="paint0_linear_1367_285" x1="6.01943" y1="38.7306" x2="37.245" y2="7.50498" gradientUnits="userSpaceOnUse">
<stop stop-color="#FEE411"/>
<stop offset="0.0518459" stop-color="#FEDB16"/>
<stop offset="0.1381" stop-color="#FEC125"/>
<stop offset="0.2481" stop-color="#FE983D"/>
<stop offset="0.3762" stop-color="#FE5F5E"/>
<stop offset="0.5" stop-color="#FE2181"/>
<stop offset="1" stop-color="#9000DC"/>
</linearGradient>
</defs>
</svg>
