<svg id="Layer_1" data-name="Layer 1" xmlns="http://www.w3.org/2000/svg" viewBox="0 0 512 512"><g id="Labor"><path d="M494.58,442.05l-.21-3.44-3.66-57.55a69.22,69.22,0,0,0-46.06-61l-86.1-30.43a22.44,22.44,0,0,0-16.09.48c-.27.11-.54.23-.8.36l-20.6-6.36V267c21.38-14.35,37.9-40.43,38.86-64.6h.61a17.06,17.06,0,0,0,17-17v-16a17,17,0,0,0-1.07-5.89,13.28,13.28,0,0,0,6.95-11.7v-8.92a13.2,13.2,0,0,0-10.65-13v-2.54c0-.75,0-1.49,0-2.24a84.47,84.47,0,0,0-3.85-23.19,6.36,6.36,0,0,0-12.14,3.83,71.46,71.46,0,0,1,3.27,19.69c0,.63,0,1.27,0,1.91V136a6.37,6.37,0,0,0,6.37,6.37h4c.11,0,.31.18.31.5v8.93c0,.32-.2.5-.31.5h-186c-.11,0-.31-.18-.31-.5v-8.93c0-.32.2-.5.31-.5h4a6.36,6.36,0,0,0,6.36-6.37v-8.68c0-.64,0-1.28,0-1.91.85-33.58,25.56-62,57.53-67.69V81.19a21.29,21.29,0,0,0,6.11,14.93l.15.16.16.15a21.28,21.28,0,0,0,14.92,6.11h7.56a21.31,21.31,0,0,0,14.93-6.11l.15-.15.15-.16a21.24,21.24,0,0,0,6.11-14.93V57.76a69.4,69.4,0,0,1,43.55,27.07,6.37,6.37,0,0,0,10.21-7.61,82,82,0,0,0-56.09-32.66,21.37,21.37,0,0,0-19-11.67h-7.54a21.37,21.37,0,0,0-19,11.67,81.6,81.6,0,0,0-49.49,24.85A83.56,83.56,0,0,0,182,125.12c0,.75,0,1.49,0,2.24v2.54a13.19,13.19,0,0,0-10.65,13v8.92a13.28,13.28,0,0,0,7,11.7,17,17,0,0,0-1.07,5.89v16a17.05,17.05,0,0,0,17,17h.6c.89,24.19,17.44,50.38,38.87,64.77v16.93l-20.61,6.35a22.44,22.44,0,0,0-16.88-.83l-86.11,30.43a69.21,69.21,0,0,0-46,61l-.45,7.17a6.36,6.36,0,0,0,12.7.81l.46-7.17a56.5,56.5,0,0,1,37.58-49.78l22-7.78V450.7H80.25a7.25,7.25,0,0,1-4.8-1.79c-.19-.17-.37-.34-.55-.53a7.29,7.29,0,0,1-2-4.76,6.43,6.43,0,0,1,0-.76l1.78-28A6.36,6.36,0,0,0,62,414l-1.79,28h0c0,.34,0,.69,0,1a20.27,20.27,0,0,0,4.76,13.24c.22.26.45.52.69.77a20.13,20.13,0,0,0,14.63,6.34H474.54a21,21,0,0,0,3.08-.24,20.09,20.09,0,0,0,17-20.11C494.62,442.74,494.61,442.39,494.58,442.05ZM360,165.1h.55a4.32,4.32,0,0,1,4.31,4.32v16a4.31,4.31,0,0,1-4.31,4.31H360ZM265,54.25a8.76,8.76,0,0,1,.28-2.15l0-.11a8.62,8.62,0,0,1,8.31-6.37h7.54A8.63,8.63,0,0,1,289.49,52s0,.08,0,.11a8.79,8.79,0,0,1,.29,2.15V81.17a8.64,8.64,0,0,1-2.52,6.1h0l-.24.22a8.61,8.61,0,0,1-5.86,2.31h-7.54a8.57,8.57,0,0,1-5.85-2.31l-.25-.22h0a8.6,8.6,0,0,1-2.52-6.1V54.25ZM194.82,189.71h-.55A4.32,4.32,0,0,1,190,185.4v-16a4.33,4.33,0,0,1,4.32-4.32h.55Zm150.1,113.34,2.05-1,.26-.11a9.68,9.68,0,0,1,7.08-.29l15.82,5.59L323.34,343a10,10,0,0,1-11.6.41l-21.43-14.06ZM207.55,200.41V165.1h139.7v35.14c0,21.92-17.64,47.88-38.33,59.26l-.14.08c-.67.36-1.34.71-2,1l-.34.17q-2.16,1.05-4.35,1.88l-.58.21c-.54.19-1.07.38-1.61.55l-.62.2c-.71.21-1.42.42-2.13.59l-.83.21c-4.08,1-7.56,1.81-10.69,2.36a49.63,49.63,0,0,1-8.62.84c-4.74,0-9.61-.88-16.36-2.51l-.12,0-.4-.1-2.65-.66c-.7-.18-1.41-.38-2.11-.6l-.61-.2-.29-.09c-.44-.15-.87-.29-1.3-.45l-.6-.22-.1,0c-1.44-.56-2.88-1.18-4.31-1.88l-.13-.07C226.44,250.1,207.55,223.05,207.55,200.41Zm-7.06,101.25a9.68,9.68,0,0,1,7.34.4l56.66,27.25-21.43,14.06a10,10,0,0,1-5.51,1.65h0a10,10,0,0,1-6.09-2.06l-46.79-35.71ZM271,450.7H149.13V319.81l21.2-7.49,53.41,40.76a22.88,22.88,0,0,0,13.81,4.66h0A22.63,22.63,0,0,0,250,354l21-13.77ZM244.09,305.37,230,298.6l8.69-2.68a11,11,0,0,0,7.76-10.51V274.06q2,.81,4,1.47l.37.13.06,0,.9.28c.93.29,1.78.52,2.57.73,2.17.54,4.2,1,6.12,1.47l1.66.36.2.05a70,70,0,0,0,14.57,1.79H277a73.26,73.26,0,0,0,16-2.06c2-.45,4.12-.95,6.4-1.52l.83-.21c.85-.21,1.71-.45,2.57-.71l.81-.25c.59-.19,1.18-.38,1.76-.59l.95-.33c.67-.26,1.35-.52,2-.8V285.4a11,11,0,0,0,7.76,10.52l8.69,2.69L277.4,321.4ZM405.67,450.7H283.76V340.24l21,13.77a22.63,22.63,0,0,0,12.48,3.73,22.91,22.91,0,0,0,13.82-4.66l53.41-40.76,21.2,7.49V450.7Zm75.15-3.53a7.58,7.58,0,0,1-.92,1.21,7.31,7.31,0,0,1-5.35,2.32H418.39V324.31l22,7.78a54.8,54.8,0,0,1,5.84,2.44A56.48,56.48,0,0,1,478,381.87l3.88,61a6.43,6.43,0,0,1,0,.76A7.26,7.26,0,0,1,480.82,447.17Z"/><path d="M373.12,379.82H325.67A12.14,12.14,0,0,0,313.54,392v18.47a12.14,12.14,0,0,0,12.13,12.13h47.45a12.14,12.14,0,0,0,12.13-12.13V392A12.14,12.14,0,0,0,373.12,379.82Zm-.6,30H326.27V392.55h46.25Z"/></g></svg>