<svg width="45" height="44" viewBox="0 0 45 44" fill="none" xmlns="http://www.w3.org/2000/svg">
<path d="M22.2925 43.8335C34.3737 43.8335 44.1675 34.0397 44.1675 21.9585C44.1675 9.87727 34.3737 0.0834961 22.2925 0.0834961C10.2112 0.0834961 0.41748 9.87727 0.41748 21.9585C0.41748 34.0397 10.2112 43.8335 22.2925 43.8335Z" fill="#007AB9"/>
<path d="M35.3618 23.7187V32.7373H30.1331V24.3231C30.1331 22.2104 29.3781 20.7676 27.485 20.7676C26.0402 20.7676 25.182 21.739 24.8029 22.6795C24.6653 23.0156 24.6298 23.4824 24.6298 23.9538V32.7369H19.4007C19.4007 32.7369 19.4709 18.4861 19.4007 17.0109H24.6302V19.2394C24.6197 19.257 24.6049 19.2741 24.5955 19.2909H24.6302V19.2394C25.3251 18.1702 26.5643 16.6416 29.3427 16.6416C32.7827 16.6416 35.3618 18.8893 35.3618 23.7187ZM13.9306 9.43042C12.1419 9.43042 10.9717 10.6045 10.9717 12.1472C10.9717 13.657 12.108 14.8651 13.8619 14.8651H13.8959C15.7196 14.8651 16.8536 13.657 16.8536 12.1472C16.8189 10.6045 15.7196 9.43042 13.9306 9.43042ZM11.2825 32.7373H16.5096V17.0109H11.2825V32.7373Z" fill="#F1F2F2"/>
</svg>
