<svg id="Layer_1" data-name="Layer 1" xmlns="http://www.w3.org/2000/svg" viewBox="0 0 512 512"><g id="maintenance"><path d="M339.74,211.39a7.87,7.87,0,0,0,10.48-5.22,84.09,84.09,0,0,0,0-42.39,7.87,7.87,0,0,0-10.49-5.24,12.4,12.4,0,0,1-12.29-21.27,7.86,7.86,0,0,0,.73-11.7,83.63,83.63,0,0,0-36.74-21.25,7.87,7.87,0,0,0-9.77,6.49,12.39,12.39,0,0,1-24.57,0,7.87,7.87,0,0,0-9.77-6.49,83.54,83.54,0,0,0-36.74,21.25,7.88,7.88,0,0,0,.73,11.7,12.39,12.39,0,0,1-12.28,21.27,7.87,7.87,0,0,0-10.49,5.24,84.09,84.09,0,0,0,0,42.39,7.86,7.86,0,0,0,10.48,5.22,12.4,12.4,0,0,1,12.3,21.26,7.79,7.79,0,0,0-.69,11.69,83.62,83.62,0,0,0,36.67,21.18,7.88,7.88,0,0,0,9.77-6.45,12.39,12.39,0,0,1,24.55,0,7.87,7.87,0,0,0,9.76,6.46,83.63,83.63,0,0,0,36.69-21.18,7.87,7.87,0,0,0-.7-11.69,12.4,12.4,0,0,1,12.31-21.26Zm-28.9-2.5a28.09,28.09,0,0,0,.81,29.28,68.62,68.62,0,0,1-17.29,10,28,28,0,0,0-49.9,0,68,68,0,0,1-17.29-10,28,28,0,0,0-25-43.2,68.66,68.66,0,0,1,0-20,28,28,0,0,0,25-43.28,67.86,67.86,0,0,1,17.28-10,28,28,0,0,0,50,0,68,68,0,0,1,17.28,10,28,28,0,0,0,25,43.29,69.12,69.12,0,0,1,0,20,28.1,28.1,0,0,0-25.8,13.93Z"/><path d="M269.41,151.17a33.75,33.75,0,1,0,33.75,33.75,33.79,33.79,0,0,0-33.75-33.75Zm0,51.92a18.18,18.18,0,1,1,18.17-18.18A18.19,18.19,0,0,1,269.41,203.09Z"/><path d="M454.62,384.77a34.25,34.25,0,0,0-40.81-26.18l-77.94,17.84a78.41,78.41,0,0,1-42.15-1.95,35.92,35.92,0,0,0,12.41-15.43c7.62-17.83-.42-38.94-18.49-46.42l-79.39-32.87a7.84,7.84,0,0,0-3-.59h-74.1V268.6a7.86,7.86,0,0,0-7.78-7.79H64.44a7.78,7.78,0,0,0-7.78,7.79V405.47a7.78,7.78,0,0,0,7.78,7.79h59a7.78,7.78,0,0,0,7.78-7.79v-7.4h30.77a7.79,7.79,0,0,0,0-15.58H131.17V294.75h72.55l78,32.26c10.18,4.22,14.42,16,10.11,26a20,20,0,0,1-24.7,11.37L214,343.93a7.79,7.79,0,0,0-5.59,14.54s29.54,11.35,52.07,20c.45.18.9.34,1.35.49l22.66,8.71a93.87,93.87,0,0,0,54.85,3.9l78-17.84a18.53,18.53,0,0,1,22.08,14.17,18.33,18.33,0,0,1-13.46,21.54l-93,23.63a78.29,78.29,0,0,1-48.11-3l-55-21.59A7.78,7.78,0,1,0,224.07,423l55.05,21.59a93.78,93.78,0,0,0,34.34,6.54,94.81,94.81,0,0,0,23.29-2.93l93-23.64a33.87,33.87,0,0,0,24.87-39.8ZM72.23,397.68V276.38H115.6v113.9h0v7.4Z"/><path d="M131.67,218.3l22,12.94A7.86,7.86,0,0,0,164,228.93l14.51-21.17a7.79,7.79,0,0,0-12.85-8.8L161,205.73a109.27,109.27,0,1,1,184.25,57.78,7.79,7.79,0,0,0-.07,11,7.87,7.87,0,0,0,11,.08,124.89,124.89,0,1,0-210.52-66.11l-6.11-3.61a7.79,7.79,0,0,0-7.91,13.42Z"/><path d="M329.5,282.63a7.79,7.79,0,1,0-2.15,10.8,7.86,7.86,0,0,0,2.15-10.8Z"/><path d="M200.13,398.4A7.79,7.79,0,1,0,198,409.2a7.85,7.85,0,0,0,2.15-10.8Z"/></g></svg>