<svg width="45" height="44" viewBox="0 0 45 44" fill="none" xmlns="http://www.w3.org/2000/svg">
<path d="M22.5425 43.8335C34.6237 43.8335 44.4175 34.0397 44.4175 21.9585C44.4175 9.87727 34.6237 0.0834961 22.5425 0.0834961C10.4613 0.0834961 0.66748 9.87727 0.66748 21.9585C0.66748 34.0397 10.4613 43.8335 22.5425 43.8335Z" fill="#03A9F4"/>
<path d="M36.7133 13.1712C35.6475 13.6367 34.52 13.9459 33.3659 14.0894C34.5826 13.3679 35.4921 12.2248 35.9218 10.8772C34.783 11.5531 33.537 12.0291 32.2376 12.2847C31.4413 11.4331 30.4073 10.8409 29.2699 10.585C28.1325 10.3291 26.9444 10.4214 25.8602 10.8499C24.776 11.2784 23.8458 12.0232 23.1906 12.9875C22.5354 13.9518 22.1856 15.0909 22.1866 16.2567C22.1825 16.7017 22.2279 17.1458 22.3219 17.5807C20.0105 17.4672 17.7491 16.8673 15.6854 15.8203C13.6217 14.7734 11.802 13.3028 10.3453 11.5047C9.59656 12.7838 9.36459 14.3006 9.69681 15.7451C10.029 17.1895 10.9004 18.4526 12.1327 19.276C11.2129 19.2512 10.3125 19.0054 9.50774 18.5593V18.6227C9.51032 19.9634 9.97441 21.2625 10.822 22.3014C11.6696 23.3403 12.849 24.0557 14.1619 24.3274C13.6651 24.458 13.153 24.5219 12.6393 24.5174C12.2694 24.5242 11.8998 24.4914 11.5369 24.4195C11.9131 25.5726 12.6373 26.5809 13.6099 27.3056C14.5825 28.0303 15.7557 28.4358 16.9683 28.4664C14.9135 30.0725 12.3805 30.9448 9.77254 30.9446C9.30786 30.9486 8.84343 30.9216 8.38232 30.864C11.0415 32.5785 14.1411 33.4844 17.305 33.4718C27.9979 33.4718 33.8437 24.6153 33.8437 16.9389C33.8437 16.6827 33.8437 16.4352 33.8235 16.1876C34.962 15.366 35.9412 14.3438 36.7133 13.1712Z" fill="white"/>
</svg>
