<svg id="Layer_1" data-name="Layer 1" xmlns="http://www.w3.org/2000/svg" viewBox="0 0 512 512"><g id="Vendor"><path d="M419.38,403.67V381.08H384.14v-13.8a28.33,28.33,0,0,0-10-21.62v-40.9a56,56,0,0,0-56-56h-38.2V224.2a68.49,68.49,0,0,0,31.39-57.56L311,122.12h0a68.66,68.66,0,0,0-19.06-40.93l-8.24,8a57.21,57.21,0,0,1,14.87,27.74H186.7l0-.19H150.46a9.58,9.58,0,1,1,0-19.15h44.61l1.73-2.35a57.27,57.27,0,0,1,46-23.32,56.67,56.67,0,0,1,33,10.49L282.4,73A68.52,68.52,0,0,0,189.34,86.1H150.46a21.07,21.07,0,0,0,0,42.14H174l0,.19h.3c0,.18,0,.36,0,.54v37.67a68.49,68.49,0,0,0,31.39,57.56v24.58H172.73v11.5h11.44v49.54H207a32.45,32.45,0,0,0,29.37-18.72,74.75,74.75,0,0,0,12.87,0,32.45,32.45,0,0,0,29.37,18.72h22.8V260.28h16.73a44.53,44.53,0,0,1,44.48,44.48v35a28.32,28.32,0,0,0-29.41,10.43,28,28,0,0,0-4.3-4.54V300.75H317.4v39A28.32,28.32,0,0,0,288,350.2a28.32,28.32,0,0,0-45.21,0,28.31,28.31,0,0,0-45.2,0,28.32,28.32,0,0,0-29.41-10.43v-39H156.68v44.91a28,28,0,0,0-4.3,4.54A28.33,28.33,0,0,0,123,339.77v-35a44.51,44.51,0,0,1,39-44.15l-1.4-11.41a56,56,0,0,0-49.09,55.56v40.9a28.3,28.3,0,0,0-10,21.62v13.8H66.18V403.9a24.13,24.13,0,0,0,5.37,47.66H99.9a24.11,24.11,0,0,0,23.43-29.88H152v29.88h11.5V421.68H275.14V410.19H116.76a24.05,24.05,0,0,0-16.86-6.9H77.68V392.57H407.89v10.72H386.82a24.08,24.08,0,0,0-16.87,6.9H286.63v11.49h35.45v29.88h11.49V421.68h29.81a24.15,24.15,0,0,0,23.44,29.88h28.35a24.13,24.13,0,0,0,4.21-47.89ZM185.75,129c0-.18,0-.36,0-.54H299.81c0,.18,0,.36,0,.54v25.34L284,139.93H185.75Zm0,37.67V151.42h93.82l20.16,18.36a57,57,0,0,1-114-3.14ZM207,298.33H195.67V260.28h10.42a37.25,37.25,0,0,0,19.29,27.05A20.94,20.94,0,0,1,207,298.33Zm35.8-18.15a25.68,25.68,0,0,1-25.64-25.59V230.18a68.39,68.39,0,0,0,51.29,0v24.41A25.69,25.69,0,0,1,242.78,280.18Zm47.12,18.15H278.59a21,21,0,0,1-18.41-11,37.24,37.24,0,0,0,19.3-27.05H289.9v38.05ZM99.9,414.79a12.64,12.64,0,1,1,0,25.28H71.55a12.64,12.64,0,0,1,0-25.28Zm46.73-33.71H112.92v-13.8a16.86,16.86,0,0,1,33.71,0Zm45.2,0H158.12v-13.8a16.86,16.86,0,0,1,33.71,0Zm45.21,0H203.33v-13.8a16.86,16.86,0,0,1,33.71,0Zm45.2,0H248.53v-13.8a16.86,16.86,0,0,1,33.71,0Zm45.2,0H293.73v-13.8a16.86,16.86,0,0,1,33.71,0Zm45.21,0H338.94v-13.8a16.86,16.86,0,0,1,33.71,0Zm42.52,59H386.82a12.64,12.64,0,0,1,0-25.28h28.35a12.64,12.64,0,0,1,0,25.28Z"/><path d="M214.44,92.23h11.49v11.5H214.44Z"/><path d="M237,319.78h11.49v11.49H237Z"/><path d="M237.42,92.23h11.49v11.5H237.42Z"/><path d="M260.41,92.23H271.9v11.5H260.41Z"/></g></svg>